<mxfile host="app.diagrams.net" agent="Mozilla/5.0 (Macintosh; Intel Mac OS X 10_15_7) AppleWebKit/537.36 (KHTML, like Gecko) Chrome/131.0.0.0 Safari/537.36" version="25.0.3">
  <diagram name="第 1 页" id="2v8hyXMfZoO-VzIBAoE6">
    <mxGraphModel dx="1420" dy="1114" grid="1" gridSize="10" guides="1" tooltips="1" connect="1" arrows="1" fold="1" page="1" pageScale="1" pageWidth="827" pageHeight="1169" math="0" shadow="0">
      <root>
        <mxCell id="0" />
        <mxCell id="1" parent="0" />
        <mxCell id="8ZCHsDbLr2-xaNgQYZt0-1" value="" style="rounded=0;whiteSpace=wrap;html=1;sketch=1;hachureGap=4;jiggle=2;curveFitting=1;strokeColor=default;strokeWidth=2;align=center;verticalAlign=middle;fontFamily=Architects Daughter;fontSource=https%3A%2F%2Ffonts.googleapis.com%2Fcss%3Ffamily%3DArchitects%2BDaughter;fontSize=12;fontColor=default;fillColor=none;dashed=1;" vertex="1" parent="1">
          <mxGeometry x="240" y="480" width="320" height="480" as="geometry" />
        </mxCell>
        <mxCell id="8ZCHsDbLr2-xaNgQYZt0-2" value="" style="ellipse;whiteSpace=wrap;html=1;aspect=fixed;rounded=1;sketch=1;hachureGap=4;jiggle=2;curveFitting=1;strokeColor=#6c8ebf;strokeWidth=2;align=center;verticalAlign=middle;fontFamily=Architects Daughter;fontSource=https%3A%2F%2Ffonts.googleapis.com%2Fcss%3Ffamily%3DArchitects%2BDaughter;fontSize=12;fillColor=#dae8fc;" vertex="1" parent="1">
          <mxGeometry x="280" y="520" width="240" height="240" as="geometry" />
        </mxCell>
        <mxCell id="8ZCHsDbLr2-xaNgQYZt0-3" value="&lt;font style=&quot;font-size: 18px;&quot;&gt;&lt;b&gt;文&lt;/b&gt;&lt;/font&gt;" style="text;html=1;align=center;verticalAlign=middle;resizable=0;points=[];autosize=1;strokeColor=none;fillColor=none;fontFamily=Architects Daughter;fontSource=https%3A%2F%2Ffonts.googleapis.com%2Fcss%3Ffamily%3DArchitects%2BDaughter;fontSize=12;fontColor=default;" vertex="1" parent="1">
          <mxGeometry x="280" y="620" width="40" height="40" as="geometry" />
        </mxCell>
        <mxCell id="8ZCHsDbLr2-xaNgQYZt0-4" value="&lt;font style=&quot;font-size: 18px;&quot;&gt;&lt;b style=&quot;&quot;&gt;体系&lt;/b&gt;&lt;/font&gt;" style="ellipse;whiteSpace=wrap;html=1;aspect=fixed;rounded=1;sketch=1;hachureGap=4;jiggle=2;curveFitting=1;strokeColor=#82b366;strokeWidth=2;align=center;verticalAlign=middle;fontFamily=Architects Daughter;fontSource=https%3A%2F%2Ffonts.googleapis.com%2Fcss%3Ffamily%3DArchitects%2BDaughter;fontSize=12;fillColor=#d5e8d4;" vertex="1" parent="1">
          <mxGeometry x="320" y="560" width="160" height="160" as="geometry" />
        </mxCell>
        <mxCell id="8ZCHsDbLr2-xaNgQYZt0-5" value="&lt;font style=&quot;font-size: 18px;&quot;&gt;&lt;b&gt;化&lt;/b&gt;&lt;/font&gt;" style="text;html=1;align=center;verticalAlign=middle;resizable=0;points=[];autosize=1;strokeColor=none;fillColor=none;fontFamily=Architects Daughter;fontSource=https%3A%2F%2Ffonts.googleapis.com%2Fcss%3Ffamily%3DArchitects%2BDaughter;fontSize=12;fontColor=default;" vertex="1" parent="1">
          <mxGeometry x="480" y="620" width="40" height="40" as="geometry" />
        </mxCell>
        <mxCell id="8ZCHsDbLr2-xaNgQYZt0-6" value="" style="html=1;shadow=0;dashed=0;align=center;verticalAlign=middle;shape=mxgraph.arrows2.arrow;dy=0.6;dx=40;direction=north;notch=0;rounded=1;sketch=1;hachureGap=4;jiggle=2;curveFitting=1;strokeColor=#9673a6;strokeWidth=2;fontFamily=Architects Daughter;fontSource=https%3A%2F%2Ffonts.googleapis.com%2Fcss%3Ffamily%3DArchitects%2BDaughter;fontSize=12;fillColor=#e1d5e7;textDirection=vertical-rl;labelPosition=center;verticalLabelPosition=middle;" vertex="1" parent="1">
          <mxGeometry x="310" y="750" width="70" height="170" as="geometry" />
        </mxCell>
        <mxCell id="8ZCHsDbLr2-xaNgQYZt0-7" value="&lt;font style=&quot;font-size: 18px;&quot;&gt;&lt;b&gt;业务价值&lt;/b&gt;&lt;/font&gt;" style="text;html=1;align=center;verticalAlign=middle;resizable=0;points=[];autosize=1;strokeColor=none;fillColor=none;fontFamily=Architects Daughter;fontSource=https%3A%2F%2Ffonts.googleapis.com%2Fcss%3Ffamily%3DArchitects%2BDaughter;fontSize=12;fontColor=default;textDirection=vertical-lr;" vertex="1" parent="1">
          <mxGeometry x="293" y="850" width="100" height="40" as="geometry" />
        </mxCell>
        <mxCell id="8ZCHsDbLr2-xaNgQYZt0-8" value="" style="html=1;shadow=0;dashed=0;align=center;verticalAlign=middle;shape=mxgraph.arrows2.arrow;dy=0.6;dx=40;direction=north;notch=0;rounded=1;sketch=1;hachureGap=4;jiggle=2;curveFitting=1;strokeColor=#9673a6;strokeWidth=2;fontFamily=Architects Daughter;fontSource=https%3A%2F%2Ffonts.googleapis.com%2Fcss%3Ffamily%3DArchitects%2BDaughter;fontSize=12;fillColor=#e1d5e7;textDirection=vertical-rl;labelPosition=center;verticalLabelPosition=middle;" vertex="1" parent="1">
          <mxGeometry x="417" y="750" width="70" height="170" as="geometry" />
        </mxCell>
        <mxCell id="8ZCHsDbLr2-xaNgQYZt0-9" value="&lt;font style=&quot;font-size: 18px;&quot;&gt;&lt;b&gt;技术价值&lt;/b&gt;&lt;/font&gt;" style="text;html=1;align=center;verticalAlign=middle;resizable=0;points=[];autosize=1;strokeColor=none;fillColor=none;fontFamily=Architects Daughter;fontSource=https%3A%2F%2Ffonts.googleapis.com%2Fcss%3Ffamily%3DArchitects%2BDaughter;fontSize=12;fontColor=default;textDirection=vertical-lr;" vertex="1" parent="1">
          <mxGeometry x="400" y="850" width="100" height="40" as="geometry" />
        </mxCell>
        <mxCell id="8ZCHsDbLr2-xaNgQYZt0-11" value="" style="curved=1;endArrow=classic;html=1;rounded=0;sketch=1;hachureGap=4;jiggle=2;curveFitting=1;fontFamily=Architects Daughter;fontSource=https%3A%2F%2Ffonts.googleapis.com%2Fcss%3Ffamily%3DArchitects%2BDaughter;fontSize=12;fontColor=default;exitX=0.5;exitY=0;exitDx=0;exitDy=0;strokeWidth=2;fillColor=#f8cecc;strokeColor=#b85450;" edge="1" parent="1" source="8ZCHsDbLr2-xaNgQYZt0-2">
          <mxGeometry width="50" height="50" relative="1" as="geometry">
            <mxPoint x="410" y="530" as="sourcePoint" />
            <mxPoint x="240" y="360" as="targetPoint" />
            <Array as="points">
              <mxPoint x="390" y="430" />
            </Array>
          </mxGeometry>
        </mxCell>
        <mxCell id="8ZCHsDbLr2-xaNgQYZt0-12" value="&lt;font style=&quot;font-size: 18px;&quot;&gt;&lt;b&gt;开放生态&lt;/b&gt;&lt;/font&gt;" style="text;html=1;align=center;verticalAlign=middle;resizable=0;points=[];autosize=1;strokeColor=none;fillColor=none;fontFamily=Architects Daughter;fontSource=https%3A%2F%2Ffonts.googleapis.com%2Fcss%3Ffamily%3DArchitects%2BDaughter;fontSize=12;fontColor=default;" vertex="1" parent="1">
          <mxGeometry x="350" y="398" width="100" height="40" as="geometry" />
        </mxCell>
        <mxCell id="8ZCHsDbLr2-xaNgQYZt0-13" value="" style="shape=image;verticalLabelPosition=bottom;labelBackgroundColor=default;verticalAlign=top;aspect=fixed;imageAspect=0;image=data:image/png,iVBORw0KGgoAAAANSUhEUgAACEoAAAPoCAYAAADDL4lMAAAACXBIWXMAAAsSAAALEgHS3X78AAAgAElEQVR4nOzdP28lx7kn4GpjksUYIDfxdUZCsEN76GADA26QC9hBR+QG14kNDOVETizRViYDEp1YsBLTFuTQIqNNLnBnohOaxPkAS6abLPkNeKIFNqlF8zQ1nNH84Z8+p6urngcYjOSrK9Wp4jSLXb963yrGGAAAAAAAAAAASvAdqwwAAAAAAAAAlEJQAgAAAAAAAAAohqAEAAAAAAAAAFAMQQkAAAAAAAAAoBiCEgAAAAAAAABAMQQlAAAAAAAAAIBiCEoAAAAAAAAAAMUQlAAAAAAAAAAAiiEoAQAAAAAAAAAUQ1ACAAAAAAAAACiGoAQAAAAAAAAAUAxBCQAAAAAAAACgGIISAAAAAAAAAEAxBCUAAAAAAAAAgGIISgAAAAAAAAAAxRCUAAAAAAAAAACKISgBAAAAAAAAABRDUAIAAAAAAAAAKIagBAAAAAAAAABQDEEJAAAAAAAAAKAYghIAAAAAAAAAQDEEJQAAAAAAAACAYghKAAAAAAAAAADFEJQAAAAAAAAAAIohKAEAAAAAAAAAFENQAgAAAAAAAAAohqAEAAAAAAAAAFAMQQkAAAAAAAAAoBiCEgAAAAAAAABAMQQlAAAAAAAAAIBiCEoAAAAAAAAAAMUQlAAAAAAAAAAAiiEoAQAAAAAAAAAUQ1ACAAAAAAAAACiGoAQAAAAAAAAAUAxBCQAAAAAAAACgGIISAAAAAAAAAEAxBCUAAAAAAAAAgGIISgAAAAAAAAAAxRCUAAAAAAAAAACKISgBAAAAAAAAABRDUAIAAAAAAAAAKIagBAAAAAAAAABQDEEJAAAAAAAAAKAYghIAAAAAAAAAQDEEJQAAAAAAAACAYghKAAAAAAAAAADFEJQAAAAAAAAAAIohKAEAAAAAAAAAFENQAgAAAAAAAAAohqAEAAAAAAAAAFAMQQkAAAAAAAAAoBiCEgAAAAAAAABAMQQlAAAAAAAAAIBiCEoAAAAAAAAAAMUQlAAAAAAAAAAAiiEoAQAAAAAAAAAUQ1ACAAAAAAAAACiGoAQAAAAAAAAAUAxBCQAAAAAAAACgGIISAAAAAAAAAEAxBCUAAAAAAAAAgGIISgAAAAAAAAAAxRCUAAAAAAAAAACKISgBAAAAAAAAABRDUAIAAAAAAAAAKIagBAAAAAAAAABQDEEJAAAAAAAAAKAYghIAAAAAAAAAQDEEJQAAAAAAAACAYghKAAAAAAAAAADFEJQAAAAAAAAAAIohKAEAAAAAAAAAFENQAgAAAAAAAAAohqAEAAAAAAAAAFAMQQkAAAAAAAAAoBiCEgAAAAAAAABAMQQlAAAAAAAAAIBiCEoAAAAAAAAAAMUQlAAAAAAAAAAAiiEoAQAAAAAAAAAUQ1ACAAAAAAAAACiGoAQAAAAAAAAAUAxBCQAAAAAAAACgGIISAAAAAAAAAEAxBCUAAAAAAAAAgGIISgAAAAAAAAAAxRCUAAAAAAAAAACKISgBAAAAAAAAABRDUAIAAAAAAAAAKIagBAAAAAAAAABQDEEJAAAAAAAAAKAYghIAAAAAAAAAQDEEJQAAAAAAAACAYghKAAAAAAAAAADFEJQAAAAAAAAAAIohKAEAAAAAAAAAFENQAgAAAAAAAAAohqAEAAAAAAAAAFAMQQkAAAAAAAAAoBiCEgAAAAAAAABAMQQlAAAAAAAAAIBiCEoAAAAAAAAAAMUQlAAAAAAAAAAAiiEoAQAAAAAAAAAUQ1ACAAAAAAAAACiGoAQAAAAAAAAAUAxBCQAAAAAAAACgGIISAAAAAAAAAEAxBCUAAAAAAAAAgGIISgAAAAAAAAAAxRCUAAAAAAAAAACKISgBAAAAAAAAABRDUAIAAAAAAAAAKIagBAAAAAAAAABQDEEJAAAAAAAAAKAYghIAAAAAAAAAQDEEJQAAAAAAAACAYghKAAAAAAAAAADFEJQAAAAAAAAAAIohKAEAAAAAAAAAFENQAgAAAAAAAAAohqAEAAAAAAAAAFAMQQkAAAAAAAAAoBiCEgAAAAAAAABAMQQlAAAAAAAAAIBiCEoAAAAAAAAAAMUQlAAAAAAAAAAAiiEoAQAAAAAAAAAUQ1ACAAAAAAAAACiGoAQAAAAAAAAAUAxBCQAAAAAAAACgGIISAAAAAAAAAEAxBCUAAAAAAAAAgGIISgAAAAAAAAAAxRCUAAAAAAAAAACK8chSA3BnTb0eQli/8f/26t+3NkIIq6/5V7f/25OBJv0shHD5mv/9vPt10+kr/+x5mExf/WcAAAAAAAAYmSrGaM0AStfUW90MrHYBh1f/urVZ+jS94uTG394MVVz/9WWYTE8HHyUAAAAAAAAvEZQAyNmLyg83Qw/XoYj2f1+z/ktxcaNixXH3+3WgQqUKAAAAAACAJRKUABizF0GIjRthiOvfV6ztqFzcaAHy8i9BCgAAAAAAgN4ISgCk7kUYYutGCEI1iPKcdRUojrvfT4UoAAAAAAAA7k5QAiAVTb3VBSDWb4QhnlgfbuGsq0BxeiNAcWriAAAAAAAAvk1QAmDZmnrjRhBiS3UIFkiAAgAAAAAA4BWCEgCL0tTXbTK2blSJUCGCFJy8FKCYTI+tCgAAAAAAUApBCYA+vByKuK4YoUoEY3Jxo/LEcReguLSCAAAAAABAbgQlAO6jqbeEIijAxTehCZUnAAAAAACATAhKALxLU6/fCEVsaZ9B4U5eqTpxXvqEAAAAAAAA4yIoAfCqebWI61BE+2vFHMEbXdwIThyHyfTUVAEAAAAAACkTlAB40Uaj/bVZ/HzAw8xeCU5o1wEAAAAAACRFUAIoj2AELNuJ4AQAAAAAAJAKQQkgf03dttHYEYyAZDzXqgMAAAAAABiKoASQn6ZevxGMaH+tWGVIVtuq49mN4MS5pQIAAAAAABZJUALIQ1NfByPa39esKozWWReaeKZNBwAAAAAAsAiCEsA4vVw1YtsqQraef1NxQrUJAAAAAACgB4ISwHg09XXFCFUjoEzX1SYOw2R66msAAAAAAAC4D0EJIF1NvXqjakT7+4rVAjqzrtJE26LjmUkBAAAAAABuS1ACSMuLcMSOlhrAHTy/EZy4NHEAAAAAAMCbCEoAw2vq9S4YsRtCeGJFgAcSmgAAAAAAAN5IUAIYhnAEsBxCEwAAAAAAwEsEJYDlEY4AhiU0AQAAAAAACEoAC9bUq104ov21bbqBRAhNAAAAAABAoQQlStfUGyGE1Ruz0P71xhtm5fiVvz91uMQbNfWucAQwArMbgYlnFow3mldFWr/xf77Lnuk8TKbnJhcAAAAAIA2CErl78VJ/68YL/dUFtD046X5vDwYur0IUghTlaeqtrq1GG5BYKX06gNFpQxOHV78m01PLVxh7JgAAAACAYghK5GT+gn+je8G/0f0a+rD64psDgPZAYDJ99YYlYzf/utvtfq1ZTyAT7fevg67ShEoAuZm3hdp6Zd809J5p9s1+af5LeAIAAAAAYEEEJcZs/pJ/p3vBvzWiQ+qz7gDgmeDESL342mvDEZulTweQvefd96xDSz1SL4IRW933r7HtmY61hgEAAAAA6I+gxNjMb+9fH1D3XQp6CLNvQhPzQyg3J1PW1O2N2z2tNYBCac0xJi/2TDsZhfqe2zMBAAAAADycoMQY5BeOeBsHAKmZ38Ld7QISWmsAzJ3daM3h+1UqytoznXTBHV+DAAAAAAB3JCiRKq0NZl1g4lB7joE09Vb39fe0yM8PcDvX368OVJkYUFPvdvum7UJn4KgLTGjPAQAAAABwC4ISqZnfhNzrDqi1Npi76G7tHroxuWCqRwA8hCoTyzTfM11/z7JnmrNnAgAAAAC4BUGJVMxv7+8VfBPyNq57w7e3ds/TH+6INPVG9/W347AJ4MF8v1qkF9+zVDx6s+tKJ/u+BgEAAAAAvk1QYmjzgMR+oe01HuLIy/8ezEuVl9reBWAZTrrAhJYID2XPdF/2TAAAAAAArxCUGIqX/X3x8v+u5u01rtu7aK8BsBxaItyXPVNf7JkAAAAAADqCEss2Lxd94GV/7/7U3dh1+PQmSpUDpEBLhNtq6vVuz6QtWb+OrvYD9kwAAAAAQMEEJZZlfov/wCH1Qs26g6eDjD/j3TX1TheQEM4BSMvzLuR3bF1ueFH56LNkxpSfWfe1t1/6RAAAAAAAZRKUWIam3utKRq/k/2GTcNbdlCz74Kmpd7uvO+01ANJ21h1aHxa/TvNw36E909JcXLXiKn3PBAAAAAAUR1BikbTZGNrfugoT5ZSWfnELd88hE8DoXHT7hsPi2iLM22wc2jMNRjsOAAAAAKAoghKL0tT7SkYnoYybkvMDpr2rzyogATB2sy4wcVDEwbXKW6mYdXumZ6VPBAAAAACQP0GJvs0PrNsXzE/y+mCjl2d1ifnXW3u49DSB0QDQr1m3p2i/f51nN7eqSKRKdQkAAAAAIHuCEn1q6t3uBqgbkWk6625Kno7+kzT1Vlc9QkACoAxHWQUmmnqnC0nYM6Wprci1k8WeCQAAAADgNQQl+tDUq11AwqF1+mbdLcnDUY5+HpDYd/sWoFjjD0w0dbtn+iiBkfBuvw+T6YF5AgAAAAByIyjxUFptjNVRmEx3RzN2AQkAXnbSBSaORzMv82DpsT3T6DzvKnJpxQEAAAAAZENQ4iHmh9fPlI0erbYVx1bSL/4FJAB4u3EEJpp6owtJ2DONUz7tywAAAACA4gVBiQdo6rYawdejHT/XZl1YIq0X/wISANxNuoEJe6ZcpLlnAgAAAAC4B0GJ+2jqwxDC0/ENnDeYdbcknw0+QQISADxM2yZhL0ym50nMY1O339M+S2Ak9Of9MJkemk8AAAAAYMwEJe5KSCJnw734F5AAoF9HXYWJ4QIT9kw5E5YAAAAAAEZNUOK2mno1hPDMQXb2lvviv6nXu4CEgyQAFmGYwISQRAmOwmS6W/okAAAAAADjJChxG/OQRNvz+0n6g6UHfwuT6d5CJ1JAAoDl+lsXmLhc6H91vmc68P2tGMISAAAAAMAoCUq8i5BEqRbz4n/+9bSnXzsAA5h1IYaDhQQm7JlKJSwBAAAAAIzOdyzZW3jhX7KnoakPev38Td1WkDgXkgBgICvd96Dz0NSLONg+tGcq0tOu1QoAAAAAwGioKPEmQhLMvR8m04e9/J8fRrUhiTVzCkBCLkIIu2EyPX7wkOYH5dptlE1lCQAAAABgNAQl3sQLf164X1iiqbe6EufCNgCk7OSqLdRkenqvMdoz8cLDA6YAAAAAAEsgKPE6Xvjzbf8jTKbPbjUvTb3eBSS2zSMAI3J0VQFpMj2/9ZDnbao+ssjcICwBAAAAACRPUOJVTb0XQvhrWoMiAbMQwtZbb9vO27XsOzACYMRmXdjvIEyml2/9GPPWUl9bbF7jv/fS0gUAAAAAYEEEJW5q6p0Qwn+mMyAS0x4erb/24Gh+WNQeLK1YNAAycNFVl3h9ZYB5e6l/WWje4N0BUwAAAACAAQlKXGvqjRDCsYNu3uEsTKYb3/wj84OiNiDxxMQBkKGTEMLeSwfe8xZTp/ZMvMNZF5Z4e2USAAAAAIABCEqEb1omtC/81xIYDek76lpstAGJbesFQAH+1n3vC12wVECQ23geJtMdMwUAAAAApEZQIlwFJZ458OaO/m8I4b+YNAAK0rZT+N8hhP9m0bmD34fJ9MCEAQAAAAApEZRo6r0Qwl8TGAkAAOToJy+1bwEAAAAAGFjZQYmm3ggh/K8ERgIAALm6CCFshMn00goDAAAAACn4TrGr0NSrIYTDBEYCAAA5W7PvBgAAAABSUm5QIoT9EMKTBMYBAAC52w5NvWOVAQAAAIAUlNl6o6m3Qgj/SmAkAABQilkIYV0LDgAAAABgaOVVlNByAwAAhrBiHw4AAAAApKDE1ht7XZ9kAABguba76m4AAAAAAIMpKyjR1OshhM8SGAkAAJRKVQkAAAAAYFClVZTwUhYAAIa1Fpp63xoAAAAAAEOpYoxlTP68xO+/EhgJAACUbhZC2AiT6XnpEwEAAAAALF9JFSVUkwAAgDSshBBUlQAAAAAABlFGUKKpd69K/AIAAKl4Gpp63WoAAAAAAMtWSkUJt9UAACA99ukAAAAAwNLlH5RQTQIAAFLVVpXYsDoAAAAAwDKVUFHCLTUAAEjXnrUBAAAAAJYp76CEahIAAJC6tqrEulUCAAAAAJYl94oSqkkAAED67NsBAAAAgKWpYox5znZT74QQ/jOBkQAAAO/2X8NkemmeAAAAAIBFy7mihF7HAAAwHvbvAAAAAMBS5BmUmPc43kxgJAAAwO3smicAAAAAYBlyrSjhNhoAAIzLWtc+DwAAAABgoXINSriNBgAA42MfDwAAAAAsXH5BifkttJUERgIAANzNdmjqVXMGAAAAACxSjhUl3EIDAIDxsp8HAAAAABYqr6DE/PbZdgIjAQAA7kdQAgAAAABYqNwqSuwkMAYAAOD+noSmXjd/AAAAAMCiCEoAAACpsa8HAAAAABYmt6DEVgJjAAAAHkZQAgAAAABYmHyCEk3dvkxdSWAkAADAw2yGpl41hwAAAADAIuRUUUI1CQAAyIf9PQAAAACwEIISAABAirTfAAAAAAAWIo+gxLws75MERgIAAPRDEBoAAAAAWIhcKkp4iQoAAHlZ6wLRAAAAAAC9EpQAAABSZZ8PAAAAAPQul6DERgJjAAAA+mWfDwAAAAD0LpegxGYCYwAAAPqlogQAAAAA0LvxByWa2i0zAADIk70+AAAAANC7HCpKeHkKAAB5WglNvW5tAQAAAIA+5RCU8OIUAADyZb8PAAAAAPQqh6CEvsUAAJAv+30AAAAAoFc5BCVWExgDAACwGPb7AAAAAECvcghKPElgDAAAwGJsmFcAAAAAoE/jDko0tdtlAACQt3XrCwAAAAD0aewVJdwuAwCAvK1ZXwAAAACgTzm03gAAAAAAAAAAuBUVJQAAgLQ19ZYVAgAAAAD6MvagxGoCYwAAAAAAAAAARkLrDQAAAAAAAACgGIISAABA6tatEAAAAADQl7EHJfQqBgCA/AlKAAAAAAC9UVECAAAAAAAAACiGoAQAAAAAAAAAUAxBCQAAAAAAAACgGIISAAAAAAAAAEAxBCUAAAAAAAAAgGIISgAAAAAAAAAAxRCUAAAAAAAAAACKMfagxGkCYwAAABbr0vwCAAAAAH0Ze1DCC1MAAMifgDQAAAAA0ButNwAAAAAAAACAYghKAAAAAAAAAADFGHtQ4jiBMQAAAIul9QYAAAAA0BsVJQAAgLRNppdWCAAAAADoy9iDEucJjAEAAFicmbkFAAAAAPo07qDEZCooAQAAedN2AwAAAADoVQ6tNy4SGAMAzP34JyF8+rnJAOiPcDQAAAAA0KscghJenAKQhl//JoS//D2E737XggD0x34fAAAAAOjVowymsy3Fu5nAOAAo1ePvhvDZ5yH8aMOXAED/tN4AAAAAAHqVQ1DCDTMAhnPdauPxY4sAsBj2+wAAAABAr3KpKAEAy7fzyxA++J2JB1ikydR+HwAAAADo1XdGP52T6XECowCgJG2rjbaKhJAEwKKdmWEAAAAAoG/jD0rMeYEKwHK898MQ/vF1CD/9mQkHWDzVJAAAAACA3uUSlPACFYDFa1ttfPXPEL73fZMNsByqxwEAAAAAvXuUyZS2L1CfJjAOAHLUttr4+I+qSAAsn0A0AAAAANC7nIISANC/ttXGZ39WRQJg+WZhMhWUAAAAAAB6l0frjcn0PIRwkcBIAMiJVhsAQxKGBgAAAAAWIpeKEkH7DQB6o9UGQAqeWQUAAAAAYBHyqCgx58YZAA/Xttr4x9dCEgDDs78HAAAAABYip6CEG2cAPIxWGwCpOOva6wEAAAAA9C6foMRkenn1QhUA7qpttfHp5yF88DtTB5AG1SQAAAAAgIXJqaJE6zCBMQAwJlptAKTIvh4AAAAAWJjcghLabwBwe1ptAKToIkymp1YGAAAAAFiUvIIS8z7G2m8A8HZtq42PP9FqAyBNws8AAAAAwELlVlGidZDAGABIVdtq44svQ/h5Y4kA0qTtBgAAAACwUDkGJdxAA+D1ftHMQxLv/cAEAaTpTNsNAAAAAGDR8gtKTKaXIYSjBEYCQCquW2384ZMQHj+2LADpUh0OAAAAAFi4HCtKBOV6AfiGVhsAYzFTHQ4AAAAAWIY8gxKT6XEI4SKBkQAwJK02AMbkWVcdDgAAAABgoR5lPL37IYSvExgHAMvWttr47YeqSACMi7YbAAAAAMBS5Np6I3Rle2cJjAOAZdJqA2CMTsJkemrlAAAAAIBlyDcoMS/b61YaQEm02gAYq30rBwAAAAAsS86tN0IXlNgLIawkMBYAFkWrDYAxOwuT6bEVBAAAAACWJefWG6pKAJRAqw2AsbNfBwAAAACWKu+gxFz74nWWwkAA6JlWGwBj11aTOLSKAAAAAMAy5d56Y15VoqnbsMRnCYwGgD5otQGQiz0rCeSoqqr1EEKuQbCDGOOzBMYBxamqaiuEsJ/p596NMZ4nMA7glqqqavcDqxnO13GMMddnLSStqqr2mZLrzxqHMUaXhRKTf1Bi7qB7CbuSwmAAeIC21cbHn6giATB+J2EyPbaOQKZ2QgibmX623QTGAKXay/TZciEkAeNSVdVGCGE702VzkAnDyfnnKJeFElRC6415VYl809YA5fhprdUGQD7sz4Gc5foS7LnDTBhGd8My10NJVWpgfHIOTnomwXByfbacxRhPExgHrygjKBGuwhJtVYmLBEYCwH188GEIn/45hMePTR/A+B2pJgHkqrthuZbpx3NwAMPZyXjuDxIYA3A3uR5mHsUYLxMYBxSna1+YazUJlWoSVU5QYk55SICx+bfvh/DV1yHs/LulA8jDTLlBIHO5vnuYCUrAoHLdP52pVAPjUlXVTsZtzu11YDg5h0I9WxJVVlBifmvteQIjAeA22lYbXx1qtQGQl/2uNR5ArnINSjxzwxKG0d2wfJLp9LthCeOT62HmLMboMBOGo30hS/eowClv/6BtZZx4BMhD22pDFQmA3Jx1LfEAsuSGJbAgOVfJFZSAEamqajWE8DTTNfM8goFoX8hQSmu90VaVOL+6xQZAmrTaAMiZVnhA7nJ9zl24YQmDyvXZ8lylGhidnEvjC0rAcHKtJqF9YeLKC0qEq7BEe4vtJIGRAHCTVhsAOftTmExPrTCQq+6G5XamH8/LPRhIVVVbblgCCck5FOrnVRhOriEs7QsTV2LrjWvtN/RTLTgAEqHVBkDO2pYbqroBuXPDEliEXA8lZzFGzxYYkaqq1kMIm5mumRaRMBDtCxlSmRUlwjctOHIt5QIwHlptAORupuUGUIhc3zGcuWEJg8r2hmUCYwDuJudQqGcSDEf7QgZTblAiXIUl2tTyUQIjASiTVhsAJdjXcgPIXXfD8kmmH9ONbxhIVVW7Gd+w9GyB8ck1FHoSYzxPYBxQHO0LGVrJrTeutd/cNzJ+oQGQJq02AErwPEymSpgCJci5co4XfDCcXG9vtzcsjxMYB3BLVVW1Zyhrmc6X4BYMR/tCBlV2RYlwVVXisnuhMUtgNAD502oDoBRnWm4ABcn1effcDUsYhhuWQGKEQoFF0L6QQQlKhKuwxGnGfxgB0qHVBkApZlcv0uahZICsZX7D0sEBDCfnQ0kVx2B8cn0mHcUY/dwKA9C+kBQISlybTNsv2r+lMRiADP36NyF8+ucQHj+2ugD52+3CyAAlyPXixUxQAgaV66HkmUo1MC5VVbWl8VcyXTZ7HRiOSjUMTlDipsm0fblxlM6AADLw+LshfPFlCL9632oClOH3YTL1AyFQklz76j5zwxKG4YYlkJhc9zoXMUY/u8JwtC9kcIIS37bX9VMG4KF+/JMQjv4jhB9tmEqAMhyFyVQpZaAYblgCC5Jzi2BBCRiRqqpWQwhPM10zex0YiPaFpEJQ4lXzPspbwhIAD9S22vjL37XaAChHG5LIuWwiwOvk+txzwxKGlevt7ecq1cDo5Po8CoJbMCjtC0mCoMTrzMMSO90XNAB3odUGQInOMr/5CPAt3Q3L7Uxnxss9GEhVVVtuWAIJyTUUehZjPE1gHFAq7QtJgqDEm0ym511lCWEJgNvSagOgRGdX++Z52BigJG5YAouQ66HkLMbo2QIjUlXVeghhM9M18zyCgWhfSEoEJd5mMj0VlgC4Ja02AEokJAGULNdKOm5YwrCyvWGZwBiAu8k5FOqZBMPRvpBkCEq8i7AEwNtptQFQKiEJoFjdDcsnmX5+NyxhIFVV7WZ8w9KzBcYn11Do8xjjeQLjgOJoX0hqBCVuQ1gC4PW02gAolZAEULpcb0EFL/hgULne3m5vWB4nMA7glqqqal/2rWU6X/Y6MBztC0mKoMRtzcMSG91LYQC02gAo1XMhCYBsgxJuWMJA3LAEEpPrXmfmmQSD0r6QpDyyHHcwmZ6Hpm4rSxxnXGIT4O3aVhuffa6KBECZjsJkmvMtaoB3csMSWJCc91gHCYwBuJtcn0nPYoxC/zAA7QtJkYoSdzW/OdeGJf7nuAYO0AOtNgBK9ichCYArud6CcsMShpXrPutMpRoYl6qq2tL4K5kum70ODCfnd0qCEiMlKHEf87DE/xvfwAEeQKsNgJI9D5Ppvq8AgCu59tV1wxIG4oYlkJhc9zoXMUZBCRhOzu0L/Rw1UoIS9zFvv/F0fAMHuIe21cann4fwq/fNHkC5tkNTKycEFM8NS2BBcq1UEwQlYFyqqlrN+OzDXgcGon0hqRKUuKumXrXBB4rx3g9D+MfXIfz0Z9YcAL2lAfK9BeWGJQwr19vbbljC+OT6PArOdWBQ2bYvjDF6toyYoMTd7WWcegJ4YeeXIXz1zxC+932TAkBrMzR1zrcdAd6qu2G5neksCUnAQKqq2nLDEkhIrqHQsxjjaQLjgFJl274wgTHwAIISd9HUbb/Az2J2yV0AACAASURBVMYzYIB7uG618cHvzB4Ar9rvKqwBlMgNS2ARcj2UdMMSRqaqqvWrgHyePI9gIJm3L/RsGTlBibvxBQ/kTasNAN5uxZ4YKFiuVXXcsIRhuWEJpCLnUKhnEgwn5/aFxwmMgwcQlLitpt7NOE0JoNUGALe1HZp6y2wBJeluWD7J9CMLwMFAqqradcMSSEiuodDnMcbzBMYBxdG+kNQ9skK3MC8vfJD8OAHuo2218fEfVZEA4C7aF9/rZgwoSK63oILDTBhUrre33bCEkamqaiOEsJbpujnMhOHkXKnGuXEGVJS4nf2M091AybTaAOB+1kJT75s7oCC5BiXaG5aXCYwDipP5DUsBLBifXPc6M0EJGFTO7QtVqsmAoMS7NHWbpPwo7UEC3INWGwA8zF5oalUlgOy5YQksiEo1QEpyfSY9EwqFYWhfyBhovfFuSqcAedFqA4B+rHR75ZzLKAKEjG9BzWKMXvDBcHI9lHTDEkamqqqdjCtqC4XCcIRCSZ6KEm/T1O0f4s10BwhwR1ptANCv7dDUW+YUyFyugTAHBzCQzG9YunQG45PrXucixmi/A8PRvpDkCUq8SVO3fQL1XQbyodUGAIvhZTiQrcxvWLoFBcPJtVJNEMKCcamqqj0HeZrpsnkewUC0L2QsBCXebC/jP8RASdpWG59+HsIHv7PsACzCk9DUOb/sB8qW6y2o9oblcQLjgFLlenvbDUsYn5xbKQqFwnC0L2QUBCVep6nb8nefpTcwgDtqW2188aVWGwAs2n5XkQ0gG90Ny+1MV9QtKBhIVVVbGV/OcnAA45NrKPQsxniawDigVNoXMgqCEq+nfDAwfr9o5iGJ935gMQFYtBVt64AM5XzD0nsPGE6uh5LtDUuHBzAiVVW1F0Y3M10zwS0YiPaFjImgxKuaeivjGyNACdpWGx9/EsIfPgnh8WNLDsCyfNRVZgPIRa7lYtsblucJjANK5YYlkIqcQ6GeSTAc7QsZDUGJb3MTDhiv61YbP28sIgBDcEMZyEJ3w/JJpqvpFhQMpKqq3YxvWNoHwvjkGgp9LhQKw9C+kLERlLipqXczLjUF5E6rDQCGt91VaAMYu1xvQQVBCRhUrre32xuWpwmMA7ilqqo2Qghrmc6Xw0wYjvaFjMojy/US1SSA8Wlbbfz2Q1UkAEhF+4PjhtUARi7XoER7w/IygXFAcTK/YSmABeOT615nJigBg9K+kFFRUeJaU+9nnKAEcqXVBgDpedJVagMYJTcsgQVRqQZISa7PpGdCoTAM7QsZI0GJcBWSWM045QTkSqsNANKlUhswZrm+H5jFGL3gg+HkeijphiWMTFVVbWn8lUzXTSgUhiMUyugISsztZbwxAHLTttr4+JMQ/vBJCI8fW14AUrQWmloQGRirXPvqOjiAgWR+w1K/bhifXPc6FzFG+x0YjvaFjM6j4pesqdsfVD5LYCQA79a22mhDEqpIAJC+/dDUh2Ey9cMkZKY78Mv1Jdh6xhcpVquqUvGHa6d9HSZVVbUVQtgys2+V8/xseLYsX4zRnC9YVVW73b4gR08z/VyXnkfc1NezMvOff/qymnH7Qj9HDeNwGVXLBCWUBQbGom218cFHqkgAMBYrXeU2+23IjwsH47Td/YLW+z3OwmHGL8Z5t4/M0SDssRevPRTdzP1DZuZJxtV7uLujHudsz/e7om36fjCI4xDCwoMSZbfemFeTyDU9CeRCqw0AxmsvNPWq9QOApMxijL30We6qSQhJAACp6WWv01FNAjJVdlBC8hZIXdtq44svQ/h5Y6kAGKMVe24ASI6DAwAgZxcxxuM+Pl/XhifX1nxQvHKDEk29oZoEkLS21UYbknjvB9YJgDH7qKvkBgCk4aCPUVRVterdGgCQoF72Oh2hUMhYyRUl+nxQAvTrgw+12gAgJ6pKAEAaTmKMffX6dXAAAKSorxZj7aWPTSsM+SozKNHUWx5uQJL+7fshfPV1CDv/bn0AyMlTVSUAIAl9tt3Ys6QAQGKOYoyXPQ3JXgcyV2pFCTfagPT8tA7hq0OtNgDIlT04AAxrFmPs64ZlewlpzXoCAInpMxSqehZkrryghGoSQIraVhuf/lmrDQBypqoEAAzLwQEAkLOLGONxH5+vqqp2r7PiqwXyVmJFCTfZgHRotQFAWezFAWA4B338l6uqWr0KQAIApKWXvU5HKBQKUFZQQjUJICVabQBQHlUlAGAYJzHG857+yw4OAIAU9dVibN1ZIpThUWHr7AYbkIa21YYqEgCUad8BCwAsXZ9tN/YsHwCQmKMY42VPQ7LXgUKUU1GiqTckwIDBabUBAKpKAMByzWKMfd2wbKu1rlk/ACAxfYZCXe6AQpTUekMCDBiWVhsAcE2lNwBYHgcHAEDOLmKMx318vqqq2r3Oiq8WKEMZQYn5jbWnCYwEKFXbauPTP4fw+LEvAQAIYSc09ap5AIClOOjjP1JV1ar3awBAgnrZ63SEQqEgpVSUcGMNGIZWGwDwOisqvgHAUpzEGM97+g85OAAAUtRXi7F1LfyhLPkHJVSTAIai1QYAvM2eqhIAsHB9tt0QcgQAUnMUY7zsaUz2OlCYEipKeLABy6fVBgC8i6oSALBYsxhjXzcst0IIa9YLAEhMn6FQ1bOgMHkHJeY31DzYgOV5/N0QvvhSqw0AuB17dQBYHAcHAEDOLmKMx318vqqqdrsLHUBBcq8osefBBizNj38SwtF/hPCjDXMOALezFprawQsALMZBH//WqqpWtbUFABLUy16n490EFKiEoATA4v36NyH85e9abQDA3e2bMwDo3UmM8bynf6mDAwAgRX21GFsPIWxaYShPvkGJ+c001SSAxbputfGr9000ANxPW1Viy9wBQK/6bLvhIhIAkJqjGONlT2Oy14FC5VxRws00YLG02gCAvti7A0B/ZjHGvm5Ybl2FGgEA0tJnKFT1LChUnkGJ+Y00P8QBi6PVBgD0aTM09boZBYBeODgAAHJ2EWM87uPzVVWlOj0ULNeKEm6kAYuh1QYALIo9PAD046CPf0tVVashhKfWBABITC97nY5QKBQsv6DE/CbaZgIjAXKj1QYALNLT0NSrZhgAHuQkxnje0xQ6OAAAUtRXizHniVC4HCtKuIkG9E+rDQBYhj2zDAAP0mfbDd+XAYDUHMUYL3sak70OFC6voMT8BtpOAiMBcqHVBgAsk5urAHB/sxhjXzcst0IIa9YCAEhMn6FQ7yCgcLlVlGgfaisJjAPIgVYbALBsa6GpvagAgPtxcAAA5Owixnjcx+erqsp5IpBdUEKZHKAfWm0AwFAczADA/Rz0MW9VVbUVW59aAwAgMb3sdTrePQAZBSWaWklA4OG02gCAoW2Gpl63CgBwJycxxvOepszBAQCQor5ajK1fvXsAipdTRQnVJICHee+HIfzja602AGB4+9YAAO6kz7Yb3rEBAKk5ijFe9jQmex3gSh5BifmNs+0ERgKM1c4vQ/jqnyF87/uWEACGtxOaetU6AMCtzGKMfd2wVLEVAEhRn6FQ1bOAK48ymQYPNeB+2lYbH/8xhJ/+zAQCQDpWrsIS/b4IAYBcOTgAAHJ2EWM87uPzVVW1271zAMim9YYf4oC7u261ISQBAClSChMAbuegj3mqqqqt5vTUnAMAiellr9Nxngh8Y/xBiabeURIQuDOtNgAgdU9CU29YJQB4q5MY43lPU+TgAABIUV8txto2/ptWGLiWQ+sNP8QBt6fVBgCMyZ79PgC8VZ9tN1RzAgBScxRjvOxpTPY6wEvGXVGiqdv013YCIwHGQKsNABibndDUq1YNAF5rFmPs64blloqtAECC+gyFuogBvGTsrTd2EhgDMAZabQDAGK3Y8wPAGzk4AABydhFjPO7j81VVtdu9YwD4xthbbyiTA7ydVhsAMHa7PR8EAUAuDvr4HFVVtdWbnvqqAAAS08tepyMUCnzLeCtKNPWGkoDAW2m1AQA52Oxa7gEAL5zEGM97mg8HBwBAivpqMbZ+9W4B4BVjbr2hmgTwZlptAEBOHOAAwMv6rLbkHRsAkJqjGONlT2Oy1wFea8xBCb2KgW9rW218+nkIH/zO5ABAPgQlAOCFWYyxrxuWWyq2AgAJ6jMU6p0C8FrjDEo0dftQW0lgJEBKtNoAgFythabesroAcMXBAQCQs4sY43Efn6+qKueJwBuNtaKEahLAy37RaLUBAHlzkAMAcwd9zENVVashhKfmFABITC97nY62G8AbPRrd1DR1+0PcdgIjAVLQttr47Ych/LyxHACQN2FpAAjhJMZ43tM8CCECACnqq8XYRgjhiRUG3mSMFSX8EAfMta02vvhSSAIAyrASmlpYAoDS9dl2ww1LACA1RzHGy57GZK8DvJWgBDBObauNNiTx3g8sIACUw88CAJRsFmPs64blVghhzVcTAJCYvvY6qypTAu8yrqBEU68rkwOFa1ttfPxJCH/4JITHj0ufDQAozXbXig8AStRnNQnhQwAgNRcxxuOexrRzVZkS4C3GVlFC+gtKptUGAOBnAgDKddDHJ+9uWD71dQQAJKaXvU5H2w3gncYWlJB2h1JptQEAzAlKAFCikxjjeU+f2/s1ACBFfbXd2FCdHriNR6OZJW03oExtq43ffqiKBABwbd5+YzK9NCMwmPbP30li07+ZwBgW4SKE0NfhOOPW5w3L9QT/DKdoNeN3kWfdsxx4s9PE5mYj0zYCswTnmmEcxxj7+t60Ya9za7n+HOXZMn5L2auOJyjh5hiUp2218fEnqkgAAK/a6blPO3AHMcb2hdNWKnNWVVU7ln8lMJRF2IsxPsvvYzGkGKNS1LdQVVU7T39NfqD3s9NjhRLIUmrPyqqqcg03PYsxqnREr2KMh94ZvFtVVW149v+kPs572uu+DuCtxtR6wzdLKIlWGwDAmwlRAzfl+r5gJiQBg8r12dJnGxdgCaqq2sm0mkRwmA2Dyjk86+cobmUcQQltN/4/e/cTItd15o3/OcY7BaTZJN5Jr5ksJ+os/SPCCiSLXql/kMxmBixn4xBjRzMGD7LB/8AyE1BGtskQb2w3OJvkhZ+0qkUCo6YCXrrlLBP8qndOVmqw1ufHdVe/abe7q6u7b9177rmfD4TJm3kndeuc6vKte57n+cJ4NFEbzRSJf38p4swZGw8AHGQnfgNgR63FUx7uQU8qzzZ3KAnDU2vh1lbO+W4B1wFjVevvqDstxrhQuaFMlNAxBmPQRG00UyR+sGq7AYCj+I0ANIeZVyvusLxVwDXAWNU82VYRFgxISuncl4XidfJ9BD2ZxReer3T9FYWysKEUSojdgNqJ2gAAjkehBBAVfxc0HZabBVwHjFWt3y3rOixhcGr+3aMoFPojvpDRi0EUSojdgPqJ2gAAjk/8Boxc5R2WuqCgJymltYo7LB0cwPBcq3TP7uWc7xdwHTBW4gsZvRjIRAmdYlCrbz0W8asPRG0AACd12crBqNU8fVKhBPSn1meROixhYFJKNTeRuteBnogvhL8bQqGEh59QoycuRfzqQ1EbAMBpKKqGcau1UEKHJfRkNqmm1vsLh5IwPIpCgWUQXwgzjxa9EDujdGsdownj9czzEWs/9gEAAE5LoQSMVOUdlrqgoD9rFXdYOpSE4am1UOJOzvlBAdcBoyO+EL6q9IkSHnxCTXajNhRJAADtOBurl0ygg3GqNa875OpCr3RYAkVIKa1ExPlKd8O9DvTHpBrYo/RCCQ89oRaiNgCA5VBcDeNU69++DkvoyWxSTa0dlibVwPDUWhS6nXN2mAn9EV8Ie5goASxfE7Xxyo2IM2csNgDQNr8ZYGRSSpcr7rB0cAD9qfmeQvc2DE+t30m+j6An4gvh68otlNgZoVtrJiCMg6gNAGD5zsfqpQvWGUal1i6opsPS4QH0p9bvlg0dljAsKaW1is9GFIVCf8QXwj4lT5TQGQZDJmoDAOiO3w4wLjosgVallFYq7rB0KAnDU2vh1lbO+W4B1wFjJb4Q9im5UOJyAdcAnISoDQCgW347wEiklK5W3GFpXCz0p9ZDyVCEBcOSUjoXEVcq3TbfR9AT8YVwsEeLXJed0bm1VnFDvZqojVfeMkUCAOharQ8Sga+rtQuq6bDcLOA6YKxq/W5Z12EJg1PztDxFodAf8YVwgFInSugIg6ERtQEA9Gn1kvgNqFzlHZa6oKAnKaW1ijssHRzA8FyrdM/u5ZzvF3AdMFbiC+EAZU6UUCgBw9JEbaz92KYBAH267AcyVK/m0fgKJaA/tR4c6LCEgUkp1Txp270O9ER8IRyu1EIJ3WAwBGe+EfGLd02RAABKoNga6ldroURxHZYppdcKuIy2fKiDlcPMJtXU+hzSoSQMj6LQjqSULlf0G/JuzvluAddBucQXwiHKK5RYvbRScWUT1OM734145a2IM2dsKgBQgouxeulCTKYOw6BClXdYltgF9WoB19CW5uDAPxs4zFrFzyEVSsDw1FoocSfn/KCA69jrcoX3O/A14gthvkcKXB+dYFC6f/1JxH++o0gCACiN3xJQr1rzukNsEPRKhyVQhJRS00B6vtLdcK8D/TGpBuYosVBC7AaUajdq41+etkUAQIkUSkC9an1WUGKHJYzCbFJNrR2W8rpheGotCt3OOTvMhP6IL4Q5yoveiHiygGsA9hO1AQCUT6EEVGiWIV1rh6WDA+hPzc1aurdheGr9TvJ9BD0RXwhHK2uixOolDzahRKI2AIBhOB+rly7YK6hOrV1QTYelwwPoT63fLRs6LGFYUkpNkcTZSrdNUSj0R3whHKG06A2FElASURsAwPD4TQH10WEJtCqltFJxh6VDSRieWgu3tnLOdwu4Dhgr8YVwBIUSwMGaqI31/x3xTysWCAAYEr8poCIppasVd1gaFwv9qfVQMhRhwbCklM5FxJVKt833EfREfCEs5tHC1unJAq4BaKI2TJEAAIZJoQTUpdYuqKbDcrOA64CxqvW7ZV2HJQxOrd9HoSgUeiW+EBZQzkSJ1UseaELfRG0AAMN3PlYvXbCPMHyVd1jqgoKepJTWKu6wdHAAw3Ot0j27l3O+X8B1wFiJL4QFlBS9oVAC+iRqAwCoh98WUIeaR+MrlID+1HpwoMMSBial1BR4X6x039zrQE/EF8LiSiqUcDoLfWmiNv7znYgzZ2wBAFADhRJQh1oLJXRYQk9mk2pqLZRwKAnDoygUWAbxhbCgRwtaKA8zoWtN1Marb5kiQcTfPo/45mMWAoBauLmBgau8w1IXFPRnreIOS4eSMDy1FkrcyTk/KOA6YHTEF8LxlDFRYvXSSsU/UqBMojbY9fEfI372tOUAoCYXY/XSOTsKg1ZrXnfI1YVe6bAEipBSah7Knq90N9zrQH9MqoFjKGWihJNa6NLaP0c885wlJ+K9dyNu/9ZCAFCj5jfGXTsLg1XrYaYOS+jJbFJNrR2WJtXA8NRaFLqdc3aYCf0RXwjHUEqhhNgN6EITtfHCyxFPfM9yj10TtfH6SxGf/XnsKwFAvS4rlIBhSildrrjD0sEB9KfWAqzQvQ2DVOt3ku8j6In4Qjg+EyVgLB7/dsSrNyK++ZgtH7smauPmmxEPvxj7SgBQN8XYMFy1dkE1HZYOD6A/tX63bOiwhGFJKa1VHEWuKBT6I74Qjqn/Qomd7OBaK5ygDKI22PWbDyI+et9yADAGirFhuHRYAq1KKa1U/PzRoSQMT62FW1s5Z1P9oD/iC+GYHilgwTzAhGVpojZeeUuRBBEPH0b8x/OKJAAYk7OxeslvDRiYlNLVijssjYuF/tR6KBmKsGBYUkpN4+iVSrfN9xH0ZDapRnwhHFMJhRJG4sIyNFEb//1BxBPfs7xj96fNiKd+FPHpJ2NfCQDGR6EEDE+tXVBNh+VmAdcBY1Xrd8u6DksYnFq/j0JRKPSq1u8W8YUsVf/RGx5eQvtEbbBL1AYA4+a3BgxI5R2WuqCgJ5V3WDo4gOG5Vume3cs53y/gOmB0Zr+jxBfCCSiUgJo0URsvvGyKBDtRG29cN0UCgLHzWwOGpebR+AoloD86LIEipJQuRMTFSnfDvQ70Z018IZxMv4USq5fOVVzRDd1qojZevRHxzccs/Ng1URuvX494+MXYVwIAnhz9CsCw1FooocMSelJ5h6VDSRgeRaHAMogvhBN6pOeF0+EFbWiiNn71viIJdqI2XnxOkQQA7Fq95DcHDEDlHZa6oKA/NXdYOpSE4am1UOJOzvlBAdcBozP7HSW+EE6o7+iNyz2/PgybqA12idoAgMM0hRI6EKB8teZ1h1xd6JUOS6AIKaXLFU/Xdq8D/an1XicUStCFvgsldHfBSYnaYJeoDQCYx28OGIZaH/DpsISeVN5haVINDE+t0yS2c84OM6E/4gvhFPoulLjQ8+vDMDVRG888Z/PYidr46H0LAQCHUygBhUsprVXcYengAPpTc4el7m0Ynlq/k3wfQU9SSiviC+F0+i6UqPUPGJajidr46fMRP1i1wGMnagMAFqVQAspX68FB02Hp8AD6U2uH5YYOSxiWlFLzfXS20m1TFAr9qfVeJxRh0ZVHelvp1UuX7TIcQxO18Yt3FUmwE7Xx1I8USQDAYs7G6iWT7KBQKaVzOiyBtlXeYelQEoan1nudrZzz3QKuA8ZKfCGcUp8TJTyshEX9cDXimZ9HnDljycZO1AYAnETz20PnJZRpreIOS+NioT86LIEizIpCr1S6G76PoCfiC6EdCiWgZKI22NVEbdx8M+LjqSUBgONrptnpdIIyVRu7ERHnUkqmafZvJaU09jU4yIOc82Yb/0UppQsFPuer9btlw2eahi7+Qam5cGtzwPc6NZ1PXXDPebC2vitnBU+lxXrW/N3ywGea5p8xXUwW6bNQwocc5mmiNl54KeLxf7RMY/fZXyLeuB7x18/HvhIAcFKKtKFAs8PVWjssmykZ/1PAdRDxX9bgQP/WPHxs6b/rdsUxF6V50ncLM6plhqPmw8wPCrgGIp6a/Yuv2mjxHPJaRLxqfTvjXofG97toejJRAkokaoNdt38X8d47lgMATsdvDyhTrR3fMAStjDROKa0okgA42Kwo1Hck9KPN+IaaC55g1PoslKg1OwdOTtQGu0RtAECbnrSaUCQPHKEf6y2Osb1mDwEO5TsS+rGdc26rKHTNeSbU65Fe3tnqJbEbsF8TtfGLdxVJsBO18exVRRIA0KbVS6ZKQEF0oUOv2jo4OGcyDMBcviOhH6ZJAAvpa6KEh5Swl6gNdonaAIBlaX6D3Le6UAwPHKEfWznntrJ+mwPAs/YR4OtSSpd1oUNvbrXxwrP4nCu2EeqlUAL6JGqDXaI2AGDZmu71tg6GgNPTYQn9aOXgYMZIeYDDKQqFfmzknNtqkvB3DJXrq1BC9AY0URsvvBTx+D+OfilGr4naeON6xF8/H/tKAMAyKdaGQsj5hV61FbshPgdgPkWh0A+xG8DC+iqUOGeLGDVRG+wStQEAXVmx0lAMBwfQj/Wc84OWXtk0CYBDpJSuiiaCXmznnNsqClXcDSPQV6GEinPGSdQGu0RtAEDXTJSAAqSUzimUgN60dXDg7xhgPt+R0A/TJIBj6b5QYvWSB5SM07cei3jlLVEbiNoAgH7oBIEyrOmwhF5s5ZzvtvTC/o4BDjErJrtifaAXt9p40ZTSBX/HMA6P9PAuFUowPk9civjVh4ok2InaePZpRRIA0IfVS+I3oH86LKEfrRwczIjdADicLnTox0bO+X5Lr+zvGEaij+gNhRKMyzPPR6z92KaPnagNACjBObsA/dGZBb1qK3ZjRaQuwFwOWKEfYjeAY1MoAcsiaoNdTdTGzRsRn/3ZkgBAv5rDnbbGjgPHZ5oE9GM95/ygpVc2TQLgELOiUMVk0L3tnHNbRaFrojthPPoolDDulvo1URsvvBxx5ozNHrs/TCJ+/U7Ewy/GvhIAUAITJaBfOrOgH20dHJxT8AQwl2Iy6IdpEsCJ9FEo4eEkdRO1QcyiNt57O+L3E8sBAOW4bC+gH8b1Q2+2cs5tTVNqiiTO2kqAQykmg37cauNVRQXC+JgoAW0RtcEuURsAALCfzizoRysHBzM6pQEOkVK6bFw/9GIj53y/pRf2mwVGpo9CCZXn1EfUBrtEbQBAyRRtQ390WEI/2ordMBUGYD4HrNAPsRvAiXVbKLF66YKtojqiNghRGwAwEIq2oQcppTUdltCL9Zzzg5Ze2DQJgPkUhUL3tnPObRWF+s0CI/RIx29ZoQR1USRBzKI2XnxOkQRwsO98N2Ltny0OlGL1kqkS0D0HB9CPtg4Ozvk7BjhcSumqomzohWkSwKl0Hb1xznZRlY/ej/h/LkV88zH7OlaiNoB5/vUnEf/y9M7/h8/+HPHpJ5YL+uc3CXTIASv0ZivnfLelF19zAAgwl3sd6MetNl41pdQ0eV+xhzA+XU+U0L1FXZrD8ddfsqlj1ERt/PJGxM0biiSArzvzjYhfvPv3IonGK2/t/OdA3xRKQLccsEI/Wjk4mBG7AXCIWVGoA1bo3kbO+X5Lr2qaBIxU14USUJ+mQ/i9d23smIjaAOZ5/NsR//1BxD/tqw89cybi1bcsHfRP8TZ0S4cl9KOt2I3mn5sX7SHAoRywQj/EbgCn1nWhxGVbRpVu/zbi4z/a2zFoojaaIommQAZgv7V/jvjV+4dHMjXFE00cBwCMgBG20Jv1nPODll7cNAmA+RywQve2c85tFYU2hd3n7SGMk4kS0Jabb0b87XPLWStRG8A8TaRGE63xzHNHL1MTx/Gd71pO6I/ibeiOaRLQj7YODs75OwY43Kwo1NQd6J5pEkArui6UkAdMvZrD89dfssE1ErUBzLMbtfHE9xZfpqaooimuAIC6eegI3dvKOd9t6VWbIomz9hDgUKbuQD9utfGqJuABXRdKqK6kbk0cw3vv2uSaiNoA5jkqauMwZ85EvPqWpYV+KN6GQML6+wAAIABJREFUDqSUVjwDgF60cnAw4wAQYD5Td6B7Gznn+y29qsJuGDnRG9C227+N+PiPlrUGTdGLqA3gIMeJ2jjMP61E/OtPLC90z8EtdMNDR+hHW7Ebip0A5kgpNZF+560RdE7sBtCa7golVi9dsG2Mxs03I/72uf0eqmbvnv3JTtELwH4nido4zL88HfGd71piAGqkwxK6t55zftDSq5omATCfA1bo3nbOua2i0DXFTkCXEyUUSjAezQSC11+y4UPUTAP52dOiNoCDnTRqY55mMsW3WvzvA462ekn8BiyRh47Qm7YODs4pdgI4ku9J6J5pEkCrRG/AsjQH7U10A8PR7Ncb10VtAF/XRtTGYc6c2fnvBrq0YrVhqRwcQPe2cs53W3rV5m/4rD0EOFhK6arvSejFrTZeNKXUNHZfsYVAl4USurYYnya6oZlQQNlEbQDztBm1cZjH/zHimedtAwCDpxMdetPKwcGM2A2A+dzrQPc2cs73W3pV0ySAL3VZKKFri3G6+ebOQTxlErUBzLOMqI3DrP044olLtgOAodOJDv1oK3ajeX530R4CHGxWFKoTHbondgNonegNWLYmxuH1lyIePrTUpRG1ARxmmVEb87zwcsS3OijKABRxw/LosITureecH7T0qqZJAMzngBW6t51zbqsotPm9ct4eAqFQAjrSTCt4722rXQpRG8A8XURtHObMmZ0CDWDZxALCEsj6hd60dXAgOgfgaAoloHumSQBL0WWhxAVbyKj9fhLxh8nYV6F/ojaAeX642l3UxmEe/8eIZ563TQAMkQNW6N5WzvluS68qOgdgjllRqHgi6N6tNl5RYTew36MdrohCCfj1Ozudys0hGN1rojZMkQAO0kRt/PT5iB+slrE8az+O+PSTiI+nBVwMACxMdxZ0r5WDgxmxGwDz+Z6E7m3knO+39Kp+rwBfIXoDuvTwi4ibNyIePrTsXRK1AczTFLD94t1yiiR2vfByxLd6nGwBdVuxv9CulNKKDkvoRVuxG/6GAY5mehZ0T+wGsDQKJaBrTeTDe29b9q6I2gDmaaI2miKJEif9nDkT8cpbBVwIVOmcbYXWeegI3VvPOT9o6VV1SQPMkVK6HBHnrRF0ajvn3FZR6Jq/YWA/hRLQh99PIv4wsfTL1kRtvHF9Z5IHwF5N1MYLL0X8+0s7BQmlago4nnne1gEwBDosoXttHRyc8zcMcCRFodA90ySApeqyUOJJWwl7/PqdiM/+YkWWoYk2+Y/nRW0ABys1auMwaz+OeOJSmdcGALqzoC9bOee7Lb128zd81k4CzKWgDLp3q41XTCldiIgr9g/Yz0QJ6Esz5eDmjZ1Dfdrzp82Ip34U8eknFhX4upKjNuZ54eWIbz1W7vUBMHYODqB7rRwczIjdAJgjpXRVQRl0biPnfL+lFzVNAjiQQgno02d/jnjvbVvQlt98EPHic6I2gK8bStTGYZprfuWtMq8NhmnFvkE7jOyH3rQVu9H8M/GibQSYy70OdE/sBrB0CiWgb7+fRPxhYhtOYzdq46P3h/segOUZWtTGYZopGM88X+a1wfDoBoP2GNkP3VvPOT9o6VVNkwCYY1YUamQ/dGs759xWUaiYQOBQCiWgBL9+J+Kzv9iKkxC1Acwz1KiNw6z9OOKJS2VeGwBjpcMSutfWwYGJMABH04kO3TNNAuiEQgkoQRMVcfPGzmQEFidqAzjM0KM25nnh5YhvPVbu9QEwGimlCzosoXNbOee7Lb2oiTAAR3PICt271cYr+r0CHKWbQonVSxfsBBzhsz9HvPe2VVqEqA1gnlqiNg7TFH688laZ1wbA2OhEh+61cnAwI3YDYI7ZIetFawSd2sg532/pBRU6AXN1NVFCoQQs4veTiD9MLNU8ojaAeWqL2jhM8/6aiRkA0C8PHqF7bcVurDj8AziSgjLontgNoDOPWmoozK/f2emGrv2Q7ySaqA1TJIDDNIUDtU6ROEjzXpuisd8rsAOgew5ZoRfrOecHLb2wwz+Ao5meBd3azjm3VRTa/P2et3/APF1NlAAW9fCLiJs3duIl2CFqA5jnW49F/OqDcRVJ7Hrm5zvFdQDQPd1Z0L22Dg7OOfwDmC+ldNkhK3TONAmgUwoloESf/TnivbdtTYjaAI7wxKWIX3043ik8Z87sTNI4840CLgaAkXHICt3ayjnfbekVm7/fs/YPYC6HrNC9W228YkrpQkRcsX/AURRKQKmaUeq3fzfu7WmiNl58bmfKBsB+zzwf8cqNnWKBMWuKRH76vI8HHNfqpXPWDE5GhyX0opWDgxmHfwBHUxQK3drIOd9v6RX9/QILedQyQcHeeyfiO98dX6d0E7XxxnVTJICDNVEbr7w13ikSB2liR5rvzKbIDljUSkS01ZkLozLrak92vV4ppVzRm/t+i5MYqpBzvlzi+0gp3a+0COtOztmBDQxMzllhdcVSSq9FxKuVvMPXc86vFXAdxcg532q5yLQVKaXmmn4+3JWd6x9yzg8Kvj44kIkSULqmYKApHBiLz/4S8exVRRLAwcYetTHPMz+PePzb5V4fAAAcIqW0UvGkmtsFXAMA0L9aCyfXFUkwVAoloHR//Tzi5pvj2KYmauTZp3feM8B+ojbma9blhZciznyj5KsEAICD1BoHsq1QAgBIKa0pCoXyKJSAIfh4ulNEUKsvozZe2okaAdividr41QcRaz+2NEdpJm389PmyrxEAAL6u1kKJ2zosAYCKp0ls55wVSjBYCiVgKJoigiaWoja7URtNMQjAfqI2ju8HqxE/XB3aVQMAMFKzDsuzlb57BwcAMHIppXMVF0p8WMA1wIkplIAheeP6zvSFWojaAOYRtXFyz/w84vFvD/XqAQAYl1oPDrZ0WAIAs3udWotCFUowaAolYEiagoKbbw5/y0RtAPOI2ji9prjkhZciznxj6O8EAICKzTosn6r0HSqSAACi8qLQzQKuA05MoQQMTRNR0UxiGCpRG8A8ojba06zhT5+v5d3AMsgLB4D+1XpwEDosAYCU0oWIuFLpQtwq4BrgVBRKwBA1kxiagoOhEbUBzCNqo30/WI344Wpt7wraMZnqegCA/l2tdA/u6bAEACovCjU9i8FTKAFD9cb1nQiLIRC1AcwjamO5nvl5xOPfrvkdAgAwQLMOyycr3TvTJACAqLgodCPnfL+A64BTUSgBQ9VMZbj5ZvkXL2oDmOc73xW1sWzNhI4XXoo484263ycAAEOjwxIAqFZKaSUiLlb6/hSFUgWFEjBkTfFBE2dRKlEbwDz/+pOI/3xH1EYXmkKUnz5f//sEAGBIrlW6W3d0WAIAFU+TCEWh1EKhBAxdE2fRTG0oiagNYJ5mssEv3o34l6ctU5d+sBrxw9XxvF8AAIo167A8X+kOOTgAAKLi6VnrOecHBVwHnFo3hRKT6V1bBUv0xvWd4oQSiNoA5mmiNtb/d8Q/rVimPvz7SxGPf3t87xsAgNLU2mG5rVACAEgprSkKhfKZKAE1aKItbr7Z/xv5wyTixedEbQAHE7VRhldv7Ez1AACA/tRaKHFbhyUAUPE0ie2cs0IJqqFQAmrRTHC4/bt+3kwzzeKXNyJu3oh4+IWPFPBVojbK8s3HIl54eeyrAABAT2YdlmcrXX8HBwAwcimlcxUXSnxYwDVAaxRKQE3ee2cn+qJLzes1UyR+P/FRAr5O1EaZnvhexNo/j30VAADoR60HB1s6LAGA2b1OrUWhCiWoikIJqE1TtNBMeOjCbtTGZ3/2MQK+TtRG2Z55LuLxb499FRive/YeALo367B8qtKlVyQBAETlRaGbBVwHtEahBNSmib544/py35SoDWAeURvD8eqNnf2C8ZEdDgD9qPXgIHRYAgAppQsRcaXShbhVwDVAq7oslNiyddCRTz+J+M0Hy3ktURvAPKI2huWbj0W88PLYVwEAgO5cq3St7+mwBAAqLwo1PYvqdFkocd/HBzr00fsRf2r5N7qoDWAeURvD9MT3Itb+eeyrAADAks06LC9Wus6mSQAAUXFR6EbO2Tkv1RG9ATV7/fpOTMZpidoA5hG1MXzPPBfx+LfHvgoAACzX1YrXV4clAIxcSqkZsXu+0lVQFEqVFEpAzZqihjeun+4NitoA5hG1UY9Xb+wUvcA46IIAgO7VWihxR4clAKAoFIZHoQTU7tNPIn7zwcnepKgNYJ4mrkHURj2++VjECy+PfRUYD4cZANChyjssHRwAAFFxocR6zvlBAdcBreuyUGLT9kFPPno/4k/H+BMUtQHM00wdeOWtnbgG6vLE93YKYAAAoF215nVvK5QAAFJKaxFxttKFcK9DtboslFBtBH16/fpOAcRRRG0A8zz+7Yj//mDnQJ06NQUwzT4DAEB71ipdy9s6LAGAiu91tnPOCiWolugNGItmMsQb1+e/WVEbwDzNpIFfvb8T0UDdXr2xMzkE6iV6AwA6osMSAKhZSulcRDxV6Vv8sIBrgKUxUQLG5NNPIn7zwcFvWNQGcBhRG+PTFMO88PLYV4G6KZQAgO7Umte9pcMSAKh4mkQolKB2XRZKbPo0QQE+ej/iT3v+HP/2ecSzPxG1ARxM1MZ4NXveTBEBAIATmnVYXql0/RRJAABReVGos12qJnoDxuj16xEPH0Z8/MeInz0tagM4mKgNmikiTbEM1Me0OwDohg5LAKBaKaULEfFkpe/vVgHXAEv1qOWFEWriNZ69GvHXz+0+8HVN1EYTu2CKBE1RHdRoMtURAQDduFbpOt/TYQkAVF4UanoW1etuosRketfHCQqiSAI4iKgNdjUxTU/9yNQhAABOZNZhebHS1TNNAgCIiotCN3LO9wu4DlgqEyUAgB1N1EYTtQC/+SDio/dHvwxUa9vWAkAnas3rDh2WAEBKaSUizle6EIpCGQWFEgAwdqI22NVEbbxxPeLTTywJNTMmGwC6UWuhxB0dlgCAolAYvu6iN3Zs+MwAQEFEbbBrN2pDkQQAAKdUeYelgwMAICoulFjPOT8o4Dpg6UyUAICxErXBLlEbjIsOUABYvlrzurcVSgAAKaW1iDhb6UK412E0ui6UaB5KPunjBQA9ErXBLlEbjJNCCQBYvrVK1/i2DksAoOJ7ne2cs0IJRqOPQgkAoC9N1MYLL0U8/o+2YOyaqI3Xr0c8/GLsKwEAQIsq77D8sIBrAAB6lFI6FxFPVboH7nUYFdEbADAWP1yNeObnEWfO2PKxu/27iPfeGfsqMF537T0ALFWted1bOWf3EQBArdMkQqEEY9N1oUTzY+JVnzIA6FATtfHT5yN+sGrVx66J2rj5ZsTH07GvBAAASzDrsLxS6doaQw0ARMVFofdyzpsFXAd0xkQJAKiZqA12ffaXiDeuR/z1c0vC2PnRDwDLU3OH5a0CrgEA6FFK6UJEPFnpHpgmweh0XSjhoSQAdEXUBrtEbcDfTaYPrAYALM21Spe26bC8X8B1AAD9qrko1PQsRqfbQonmoeTqJZ8yAFgmURvsErUB+21ZEQBYjlmH5cVKl1eHJQAQFReF3lEUyhj1Eb1xr+IfTQDQL1Eb7BK1AQfxox8AlqfWvO5QKAEApJRWIuJ8pQthmgSj1EehhFG3ALAMojbYJWoDDqNQAgCWp9ZCiabD0vNMAKDWe51thRKMVR+FEpsR8aRPHAC0RNQGu0RtwFEUSgDAEuiwBABGoNZCiduKQhkrEyUAYMhEbbBL1AYsQqEEACxHrXnd2zlnsRsAMHIppbWIOFvpKigKZbT6migBAJyWqA12idqARSmUAIDlWKt0XR0cAABR8b3OVs7Z/Q6jZaIEAAyNqA12idqA41K0DQAtq7zD0jQJABi5lNK5iHiq0lVQJMGopZxz9+9/9VIPLwrAXBMHra3502bEi88t579b1Aa7RG3A8U2myarB6aWULkfE/1hKGLS3c86txGWklJoH7Fd8HKBT/yBPfrlSSncj4sma3yNUrpmUcKGNt5hSuhoRH/jAQKee7iICr4+JEo3tiivNAWA5nrgU8cLLojYQtQEns2HdAOD/utXGUsw6LBVJQLfuKJIAOFIr9zozVy03dGq7iyKJ6LFQYlM1JgAcwzPPR6z92IqNnagNOA0PkwFgx0bO+X5La1FrXjeUTCQMwNFa+a5MKV1wngmd6ywSpq9Cifu+WABgAd96LOKVt0RtsBO1cfNGxGd/thhwMpvWDQC+1OYhayvxHcDCmg5LefIA8623OHlHUSh0r7Oi0D4LJQCAeURtsOsPk4hfvxPx8AtLAifnNwgAtDjGdtZhedGaQqcUSQAcTVEoDNdWzvluV1ffV6FE8wZf7em1AaB8ojaIWdTGe29H/H5iOeD0FEoAQLsHB/K6oXttZu4D1Ki1Q9aU0kpEnPcpgU51WhTaV6GEfGAAOIioDXaJ2oB2TaadVaMDQMHaPGRVKAHdag7/xMkBzOdeB4at06LQR3pZqsnUDR0A7NdEbfzqQ0US7ERtvPicIgloz5a1BIDYyDm3MmFJhyX0orO8boABMz0LhuteW79XFtXXRInGPTmGADAjaoMQtQFLJHYDAOR1w9AplACYbz3n3MpE+5TSWkSctd7Qqc7vdfoslLivUAKA0RO1wS5RG7BMYjcAGLvtnHObDx7Xxr6g0LHOOywBBsi9Dgxb54US/URv7BC/AcC4idpgl6gNWDYPlQEYu9YeOuqwhF50mtcNMEBbOedWmiRSSuci4ikfAujUnbYmwhxHnxMlmi+sV3t8fQDoj6gNQtQGdEihBABj1+Yhq7xu6N5taw4wV5v3OqZJQPd6udfpO3oDAMZF1Aa7RG1AdyZT0RsAjNlGWyP7Zx2WV3yaoFO9dFgCDEybI/sVhUK32o4JXFh/0RuTqUIJAMZF1Aa7RG1Al+5ZbQBGTl43DFsvBwcAA7LeVkFZSulCRDxp86FTvU3O6nOiRGPDFw4AoyBqgxC1AT1RoA3AmLXdnXXNpwk61fwNi90AmE9RKAxbb0WhfRdKbCqUAKBqZ74R8epbEf+0Yp/HTtQG9GXTygMwYq09dJx1WF70YYJOKZIAmG8r59xm3KaiUOhW23/Dx1JCoQQA1Ok734145a2IM2ds8Nh9/MeIm29GPPxi7CsBfejtxxYAFOBWi5cgrxu61+bfMECNWvueTCk1nW7nfUqgU70WhSqUAIBl+NefRPzL05aWiPfejbj9WwsB/fGbA4Cx2sg5txlBpVACutV0WLqXBZivzZH97nWge70WhfZbKDGZbsbqpV4vAQBa18RsiNrgb59HvP6SqA3o11ZMpg/sAQAj1Wbshg5L6F5ved0AA7Gec27zN79CCejWvZYLu4/tkQI2fKOAawAAaE8TtfGzpxVJQP904AEwVts55zYPWeV1Q/cUSgDM12ZR6FpEnLXe0Kne73X6jt6I2cPLJwu4DgCA0xO1ASVRKAHAWLX90HHNJwk61XuHJUDhmniiuy1eonsd6J5CCQ8vAYAqiNqAErX50AQAhqS1rF8dltCLXvO6AQagzXudcxHxlE2HTt1pOTrnRBRKAACcVhO1cfPNiIdfWEooi98aAIzRRsud6PK6oXu3rTnAXG12opsmAd0r4l7nkd6vYDJtHl5u934dAAAn0URtvHFdkQSUZysm094r0wGgB23mdTcdlldsInSqiA5LgIKtt/w9qSgUurWdc+49diOKKJTYodMLABiWJmrj2Z9E3P6tjYMyid0AYIzafuiowxK6V8TBAUDB2iwKvRART9ps6FQxk7NKKZTwEBMAGI4mauNnT0d89mebBuVSjA3AGLV9wHrNpwg61RQ7id0AONxWzrnNM0VFodC9YopCHy3gGsJDTABgMJqoDVMkYAgUYwMwRrfaes+zDsuLPkXQKUUSAPO1dq8zoygUutV2sdOplFIo4SEmAFC2Jmrj9ZdMkYChmEwVYwMwNhs55/stvmd53dC9tg8AAWrTZuzGSkSc9wmBThVVFFpG9MZk+iAi7hVwJQAAXydqA4Zmw44BMEJtj7BVKAHdajosFfsCHG495/ygxfVxrwPdK6ootJSJEjGL3zDODwAoi6gNGCIT6wAYm+2csw5LGLZi8roBCqUoFIbtXssT8E6tjIkSOzzMBADK8fBhxH88r0gChslvCwDGpu2DA3nd0D2FEgCHa6butPZbP6W0FhFnrTd0qrh7nZImSniYCQCU4U+bEa9fj3j4hQ2BIZpM/bYAYGzaHmG75hMEnSquwxKgMO51YPiKK5QoZ6LEZNrcCG4VcCUAwJj95oOIF59TJAHDtWHvABiZjTYPWHVYQi+KyusGKFCbEWPnIuIpmwydupNzflDakpcUvRGmSgAAvdmN2vjofXsAw+Y3BQBjI68bhu+2PQQ41HrLB6ymSUD3irzXUSgBANBEbTz1o4hPPxn9UkAFNm0iACOynXNuu8Pyig8QdKrIDkuAgigKhWFr9TdLmx4t7HoUSgAA3WqiNkyRgHpMprrxABiTth846rCE7hV5cABQiK2cc2tnhymlCxHxpM2FThX7rK6siRKTaZOnuFXAlQAAtRO1ATXasKsAjMytlt/uNR8g6FTTYanQF+Bwbd/rKAqF7hVbFFpa9EaYKgEALJ2oDaiV3xIAjMlGzvl+W+931mF50ScIOmWaBMB8bX9PKgqFbrU6FaZtCiUAgHFpojZefC7i4Rc2HurjtwQAYyKvG4ZPoQTA4dZzzg/aWp+U0kpEnLfe0KmiJ2eVWChh1BgA0D5RG1C/yVShBABj0YzrVygBw9Z0WG7aQ4BDudeB4Ws7PqdV5RVKTKZNddi9Aq4EAKiFqA0Ygzt2GYARafXgQIcl9KLogwOAni1jXL9CCejWvTajApfh0UKv665MRACgFU3UhikSMAamSQAwJm0fsMrrhu6ZrAxwuFbvdVJKaxFx1npDp4ovCi0xeiPcJAIApyZqA8bGbwgAxmJjCZ1Zaz490Kll/B0D1KTt2A33OtC94p/VlVkosZMtvF3AlQAAQ/TZXyKevSpqA8ZjKyZTD5oBGIu2Yzd0WEL32j4ABKjJes75QVvvJ6V0LiKe8gmBTt1p8+94WUqdKBFG5wIAJ3L7dxHPPh3x18+tH4yH3w4AjMV2zrntA1Z53dA909AADmeaBAzfIIpCHy3gGg7T3CxeKfPSAIDiNFEbN9+M+Hhqb2B8PGgGYCzaniZxzvM36FyrndIAldnKObfdDKEoFLrVFHcP4lldyYUSusIAgMU0URtvXDdFAsZqMlUoAcBY3Gr5feqwhO65dwU4XKv3OimlCxHxpPWGTg3mXqfc6I2djOF7BVwJAFAyURswdnfGvgAAjMZGzvl+y2/2mo8PdGowHZYAPRG7AcPXdnH30pQ8USJmUyUuFnAdAEBpRG0AO0yiA2As2o7duOC5G3RuEHndAD1ZRjSRolDoVhOfszmUNS93osQON44AwNc1URvPXlUkAYTRxQCMRNOF3vZzMgcH0D3PuwEO13ZR6EpEnLfe0KlB3euUXSgxmTYVJ1sFXAkAUApRG8Df3ZtF9gFA7ZbxwNEoaujWoDosATrWfEe2PTFSUSh0b1CFEqVHb8RslO5TBVwHANAnURvA15kmAT2YPcBM1r5eKaVc0Zv7/hIeulch53xh7GtAeWaRMP+n0q0ZTF43X35HXrYM9UopvRYRr1byBl/POb9WwHUUJ+d8NSKujn0dKE9KabPSCLx7OedBNTSVHr0RHn4CAKI2gEP4rQAAUJeaJ524dwWAkZsVhdZYJBFDLAotv1BiMm1uILcLuBIAoA+iNoCDbc2i+gAAqEetnb8bQ+uwBACWouZImMEVhQ4heiNmCyt+AwDGRNQGMJ+OPACAiqSUVirusBxUXjcAsDS1Ts+6k3N+UMB1HMsQojfCQ1AAGBlRG8DRPGwGAKhLzTnynm8DwMillC5HxPlKV2GQz+mGMlHibgHXAAB04Q+TiJs3LDUwj9gNAID61NphuT7EDksAoHW1FoVu55wHWRQ6jIkSk2lzI3mngCsBAJalidr45Q1FEsAidOQBAFQkpbRWcYele1cAICouCh3svc5QojfCDSUAVKyJ2njxuYjfT+wysAixGwAAdan14GCwHZYAQHtSSs00ibOVLumtAq7hRBRKAAD9aqI2miKJz/5sI4BFiN0AAKhISulcxYUSCnwBgKj4Xmcr5zzY53TDKZTYid9YL+BKAIA27I3aePiFJQUWpYAaAKAuaxV3WCqUAICRmxWFXql0FQZ9rzOkiRLhoSgAVELUBnByHjYDANRFhyUAULOrFb83hRKdmUybQontQV0zAPBVojaAkxO7AQBQkZTShYo7LAeb1w0AtKrWQol7Oef7BVzHiT06wGtuiiWeKuA6AIDjaKI23nvbFAngNEyYAwCoS63TJMK9KwAwKwq9WOlCDL4odGjRG+EGEwAGSNQG0A5deQAAdam1w3Jj6B2WAEArrlW8jIM/sx9eocRO/MZWAVcCACxC1AbQjnsxmXrYDABQiZTSSsUdloPO6wYAWlPr9Kw7OecHBVzHqQwxeiNmFSo/L+A6AIDDiNoA2uVhMwBAXWqdJhGmIgMAKaXLEXG+0oWo4jndEKM3wkNSACicqA2gfR42AwDUpdYOy/UaOiwBgFOrtSh0O+dcxXO6YRZKTKabX47eBQDKI2oDaN8dsRsAAPVIKa1V3GGpwBcAiIqLQqu51xlq9EbMpkr8VwHXAQDs+uUNUySAZfCwGQCgLrUeHFTTYQkAnFxKqZkmcbbSJbxVwDW0YqjRGyF+AwAK8rfPI579iSIJYBm2YzJ17w8AUImU0rmKCyXctwIAUfG9zlbOebOA62jFcAslJtMHX47gBQD69fEfI372tKgNYFl05AEA1GWt4g5LhRIAMHKzotArla5CVfc6Q47eiNlm1PpBA4DyvfduxO3f2ihgmaoZ5wcAwJd0WAIANbta8XurqlBiyNEbzVSJprtsq4ArAYBx2Y3aUCQBLNductiOAAAgAElEQVS9mEw9bAYAqERK6ULFjW8KfAGAqLhQ4l7O+X4B19GaYRdK7DDODAC6JGoD6I6HzQAAdal1mkSIjAMAZkWhFytdiOqe0ymUAAAW10RtvHE94uEXFg1Ytm0PmwEAqlNrh+VGbR2WAMCJXKt42ap7Tjf8QonJtLkB3SjgSgCgXqI2gO7djsn0gXUHAKhDSmml4g5LzXwAQFQ8PetOzrm653Q1TJQII3kBYIlEbQD9cI8PAFCXWqdJhEloAEBK6XJEnK90IaosCq2jUGIybW5Etwq4EgCoi6gNoB/3YjLdtPYAAFWptcNyvcYOSwDg2GotCt3OOVdZFFrLRIkw3gwAWiRqA+iXaRIAABVJKa1V3GFpmgQAEBUXhVZ7r6NQAgD4KlEbQL+2PWwGAKhOrQcH1XZYAgCLSyk10yTOVrpk1TY01VMoMZneb8acFXAlADBcojaA/n0Yk6nRxQAAlUgpnau4UELzHgAQFd/rbOWcq43HrWmiRLgxBYATevhQ1AZQCrEbAAB1Wau4w9LzaAAYuVlR6JVKV6Hqe526CiUm07tNZUsBVwIAw/GnzYinfiRqAyjBxmxSHAAA9dBhCQDU7GrF702hxMC8VuF7AoDl+M0HES8+J2oDKIVpEgAAFUkpXai4w9K9KwAQFRdK3Ms5V93QVGOhxO2I2C7gOgCgXE3Uxn88H/HR+zYJKMVWTKa37QYAQFVqnSYRs+fQAMCIpZRWIuJipStQfVHoowVcQ7sm0wexeqnZuFdrelsA0JomauP166ZIAKUxGQ4A6N1sAsL/mcX7zuugayIXHuz7z+7v+7+5X3sX3gJq7bDcsLcADFVKqbmPuTC7nznM/vuamN377P2/eSCGqurYjeqLQusrlNjxoUIJADhAE7VhigRQnm0deQBAIXYnIJyf/eswTy5yuSmlvf/Pe3uKKzYP+PdVHTZU3mFZdV43APWaFYXu/vN53v3MSe519haa3j/o3+ec71a2uLVOz7qTc95fFFydOgslJtP7sXppPSKeKuBqAKB/TdTGG9cjPv3EZgAluvXlZDgAgP4tsytwb9HAgYcPew4bdosq7u/715CKKXRYAkB5ri3xivYWmh51r7NbVLF3SsWXRRRDKaZIKa0dUVg7ZKMoCq11okTMclMUSgCAqA2gfDryAIDeFTYB4dBOz9kBw9a+AorNWdRHSUUUtRZKrI+hwxKAapUyAWFvUcWV2f/8Mi1gdq+zvWfq1ubee56C/jlc6zSJ7ZzzKIpC6y2UmEw3Y/XSxqKjYQCgSqI2gPKtfzkRDgCgf0M62N89XPjKs899RRR3dw8Xuu7MnHVYnu3yNTtkmgQAg5RSujygCQhn99znXNn7v0gpbe8rnrg7Kxjt7PlSSulcxYUSo7nXqXmiROO1iPifAq4DALolagMYjtfsFQBQiFoedn+tiOKAAoplT6DQYQkA5all2tNuEcXuvc7uJIrdAorNPdMnllUsWnNR6K0CrqETdRdKTKZ3Y/XSVsX5MADwdaI2gOHYME0CAChB5RnTuw4roNjYc6iwedriiVmHZa2RyCLjABiyWgsZd+0voNi917m3716njeKJWtdyq7Aot6WqfaJEzDrUPijgOgBg+URtAMNimgQAUIraDw7mOehAYWPP5InNY46yrnktFUoAMEgppasVT0A4ysXZv74s5NxXPHH3uIWiKaUL++NAKjKqe536CyUm0w9j9dJrpkoAUDVRG8DwbHw5AQ4AoGeVZ0yf1P7iia09hRN3jzhMqGWs936j6rAEoDrudb5qf/HE9p7CibtHTJ1QFFqJR0byPnWqAVCvJmrjqR8pkgCGRjceAFCKmjOm23J+dpDwXxHxSUrpQUrpdkrpWkppZfc1Zh2WTy79avoxmrxuAOoyKwqtdQJCW3ZjO16NiP9JKeWU0t2U0msppcv7XqPWotB7x5wiNnhjiN7YnSpxyw8eAKpz+3cR771jX4Gh2fryHh0AoAw6LI/v7OzA5ctDl1kXZu3Twm4XcA0AcBK1Huwv2+6ErVf3RJNtziZR1Gh0RaHjKJTYcWtWBQQAw9dEbdx8M+Ljqc0EhsjENwCgCJVnTHfpbOXruDG2DksAqqJQoh1PVjw5K8ZYFDqW6I2YFUpsF3AdAHA6n/0l4tmriiSAoTJNAgAoiWkSLML9KwCDNCsKrXUCAu25k3N+MLb1HE+hxGT6QI4cAIPXRG08+3TEXz+3l8BQmSYBAJREhyWLELsBwFBds3MsYJRFoWOaKBGmSgAwWE3UxhsvRbz3jj0Ehsw0CQCgGCmlFR2WLGB9jB2WAFTD9CyOsp1zHmVR6LgKJUyVAGCIRG0A9TBNAgAoiWkSLMI0CQAGKaV0OSLO2z2OMNp7nbFNlAhTJQAYFFEbQD1MkwAASqPDkqOMtsMSgCooCmURox0yML5CCVMlABgCURtAfUyTAACKkVJa02HJAhT6AjBkikI5ylbOeXOsqzTGiRJhqgQARRO1AdTHNAkAoDQODliEe1gABiml1EyTOGv3OMKo73XGWShhqgQApRK1AdTJNAkAoBgppXMKJVjAqDssARg89zosQqHESJkqAUA5RG0A9TJNAgAozZoOSxag0Q6AQZoVhV6xexzhXs75/pgXabyFEjtTJXS2AdA/URtA3dxzAwCl0WHJIm5bJQAG6qqNYwGjLwod80SJplji1pcdbgDQF1EbQN02TJMAAEqSUrqgw5IFbIy9wxKAQVMowSJGXxQ67kKJHTrcAOheE7XxyxuiNoDaudcGAEpjmgSLUOwLwCDNikIv2j2OcCfn/GDsi6RQYqfDzVQJALrTRG28+FzE7ycWHahZM03irh0GAAqjw5JFjL7DEoDBumbrWMDoi0JDocT/5QcSAN34w2SnSOKzP1twoHamSQAARUkpreiwZAHrOiwBGDDTszjKds559EWhoVBiZqfTbaOIawGgTrtRGzdvRDz8wiYDtVs3TQIAKJBmKRbh4ACAQUopXY6I83aPI7jXmVEo8Xc63gBYDlEbwPi4twYASqTDkqNs6bAEYMAUhbKIW1Zph0KJXTsdb+tlXAwA1RC1AYzP2zGZ3rfvAEBJUkprOixZgCIJAIZMUShHaYpCN63SjkdLuIiCNJ1vT419EQBoQRO18d7bpkgAY7NtmgQAUCgHByziQ6sEwBCllJppEmdtHkdwr7OHiRJ77XS+vV7OBQEwSKI2gPG6FZPpA/sPAJQkpXROoQQLuKfDEoABc6/DIhRK7KFQ4utuzTrhAOD4RG0A47UVk6lpEgBAidZ0WLIABwcADNKsKPSK3eMIGzlncbl7KJTYb6cDzgNeAI6nidr45Y2ImzciHn5h8YAxumbXAYBC6bBkEbetEgADddXGsQBFofsolDjIZHrry444AFiEqA2AjZhMPVgGAIqTUrqgw5IF3NFhCcCAKZRgEZ7d7aNQ4nC+VAA4mqgNgDBNAgAomGkSLMLBAQCDNCsKvWj3OMJ6zvmBRfoqhRKHmUzvNpXEZV4cAL0TtQGw6+2YTDetBgBQKM1QHGVboQQAA6Z5hUW41zmAQon5fLkA8HWiNgB2NQ+VX7MaAECJUkorOixZwG0dlgAMmOlZHGU756xQ4gAKJeaZTJtcutfLvUAAOvfxH0VtAPzdazGZeqgMAJTKNAkW4eAAgEFKKV2OiPN2jyN8aIEO9miJF1WYW7MfVb5oAMbuvXcjbv927KsAsOteTKa3rAYAUDAdlhxlS4clAAOmKJRFKJQ4hIkSR9npkBPBATBmf/s84tmfKJIA+Cr3yABAsVJKaxqfWIAiCQCGTFEoR2mKQjet0sEUSixiMm1umDfKv1AAWtdEbfzsaVEbAF+1HpPpXWsCABTMwQGL0GEJwCCllJppEmftHkcwDXYO0RuLa75wNn3pAIyIqA2Ag2ybJgEAlCyldE6hBAu4p8MSgAFzr8MiTM+aw0SJRU2m91XdAIyEqA2Aea7N4ukAAEq1ptmJBZgmAcAgzYpCr9g9jrCRc75vkQ6nUOI4JtPXmiyX4VwwAMcmagNgno2YTD1QBgBKp8OSReiwBGCorto5FuAZ3hFEbxxf8+XzP0O7aAAWIGoD4Ch+iAMARUspXdBhyQLu6LAEYMA8n2ERikKPYKLEcU2mdyNifVgXDcBcojYAFvH6LI4OAKBkpkmwCAcHAAzSrCj0ot3jCOs5Z9G5R1AocTLXImJ7iBcOwD6iNgAWsTWLoQMAKJ0OS46yrVACgAG7ZvNYgHudBSiUOInJ9IEfXQAVaKI23rge8fALuwkwn3tfAKB4KaUVHZYs4LYOSwAGzPQsjrKdc1YosQCFEic1mTYfsI1hXjzAyInaADiOt2fxcwAApVPcySIcHAAwSCmlyxFx3u5xhA8t0GIUSpzOVREcAAMjagPgOLYiQuQGADAUOiw5ypYOSwAGTFEoi1AosSCFEqcxmd734BhgQH7zgagNgOO5NoudAwAoWkppTYclC1AkAcCQKQrlKE1R6KZVWsyjQ7jIok2mt2L1UvPF9OTYlwKgWA8f7hRIfPqJPQJY3J1Z3BwAwBA0D4S/38J1Xj7if78SEecO+M/O+pQMgg5LAAYppXRhNlHitA0tR93rXJj9a/9/piB1GG6NfQGOQ6FEO67Ofoz5QQRQmj9tRrxuigTAMW0b5wgADEnOuZn8er+FS7572v+ClNLeYopzs0KK2HfwoLiie/d0WAIwVIXd6+wvprh8wL9XXNEPTU/HoFCiDU0Ex+qlJoLjv4b/ZgAq0kRtfPS+HQU4vqsiNwAATuaAw/hDH1inlPYWUlze9z9NsG2XaRIA0IIDijbmFl+klHbvbVb2FJGeUzjauo3Z3rAghRJtEcEBUA5RGwCnIXIDAKAjOecHew4XDjxkmB0u7B4m7B4seAZ5fO5xAaAHOeej7nV272/23/MoojgeRaHHpFCiXSI4APomagPgNERuAAAUZs/hwlcO+veMvb68J9ZDAcXB7uiwBIAy7ZnG9ZVCij2Tt1Zm9zkKKOZTFHpMCiXaJIIDoF+iNgBOS+QGAMBA7Bl7vf9QYWXPQcKK4okvOTgAgIHZM3lr/73O3mLR3fud8yPf3/XZenEMCiXaJoIDoHuiNgDa8LbIDQCA4Zt1ZW7ufSP7iieaQ4WLI9rqbYUSAFCPg4pFZ9MnLu+51xnbOa17nRNQKLEca7M/UKNfAJZN1AZAG7Yi4jUrCQBQp0OKJy7PDhIuVz7G+rYOSwCo2+yf9bf3FgzMCkX3Fk/UOnViO+esUOIEFEosQzOuePVSk+38/9X35gAKImoDoC0iNwAARibnfHdfJ+bKnsKJyxUVTjg4AIAR2l8oOovs2HuvU0vhxIcFXMMgPTL2BVianbHF65W+O4B+NVEb//G8IgmAdrwek+ldawkAMG7NYULO+VbOeS3n3Iyv/v6X94oRGwNemC0dlgBAzCI7cs4f5pyv5pyboon/FRH/FhF3ZlFdQ6VQ4oQUSizXtdkYYwDa0kRtPPWjiE8/saQAp3cvJlORGwAAfE0zcSLn/FrOuem4/IeI+H9njWFDet6pSAIAONCscGJvkeh3Z0Wi9wa0YluzyRmcgEKJZdoZX7xW7xsE6FgTtfHicxEPv7DyAKe37V4VAIBFNLnfzWSGPR2Y3511YJZ+kKDDEgBYyGy6VlMkujIrEn16ANMmbhVwDYOlUGLZJtPNWfURACclagNgGa7FZHrfygIAcFx7Yjr2HySU5J4OSwDgJGZFoh/umTZR6mQt07NOQaFEF3bGGQ85yw+gP5/9JeLZq6I2ANp1JyZT3XUAAJzavoOEtOcgoe/uS/e7AEArDpis9XYBRRMbTXxIz9cwaAolunO18NEsAOW5/buIZ5+O+OvnNgegPVuze1MAAGjdnoOEcz0XTeiwBABaN5usda2AoglFoaekUKIrO2ONPZAGWEQTtfHGSxHvvWO5ANq3FpPpA+sKAMCy9Vg0cUeHJQCwbD0XTSgKPSWFEl2aTG/P/kAAOMxu1MbHU0sE0L7XYzKV0wwAQOd2iyYiojlIePrLOLjlcXAAAHRqX9HE95dcILrexJ/Z4dNRKNG1yfRaRNwb15sGWJCoDYBl2ojJ9DUrDABAn5qH+jnnD3POaxHxDxHxby0/L91WKAEA9CnnfHffVK22C0Td67RAoUQ/1nrK5QMok6gNgGXbnt2DAgBAMWZFE7dyzit7xlWf9rnpbR2WAEApZlO12iwQ3W7+O23w6SmU6MNk2uTjXR3fGwc4gKgNgC6sxWTqYTEAAMXaM676tJ2XDg4AgOIcUCB60miOD+1uOxRK9GUyvT2rkAYYL1EbAF34t5hM71ppAACGYk/n5f+adV5uLXjpWzosAYDSzQpEd6M5nv4yMndxCiVaolCiT5PptZbz9wCGQdQGQFfuxGR6y2oDADBEOef7s87LCxHx/Vnn5TyKJACAQck5f5hzvjwrED0qhqwpCt20w+1QKNG/tRZy9wCGQ9QGQFe2xL0BAFCLnPPdpvNydojw+iFTJnRYAgCDNCsQvXbElIn/v727140jzQ4wfChsTt6BeAekL6CgThxUJPoKRDm0YYiTGHA0kgFPNrua0NGSd0BFFawDEmXAobtjAwaZLRyRwG5Mo9gfpZZmJPGnf6rqPA8gaGcS7ZxvgCHYL8/xA1FLJJTYtKa9KLEEwPg5tQGwLte3X2M27ZWJAwAwJuVDhLdly8TfLXyIMPMTlgDAGCxsmfibslHr7ofubc9aoq2bm5vR/MMMWl29jYgfs48B2KBmhRseulMbP/+bLRIA6/M6mtZP0wHwKFtbW5MRTa67/SschJHb2traj4j97kMFbw18z9bWVhda7Y5kUF08dtGD/x/ACm1tbXVbJrpQ9Micl0co0Sd11VVAL7OPAdiQVYUS3amNf/0XWyQA1uckmtbJDQAAAACAr3B6o1+6b2jPsg8BGJH/aCL++Z9EEgDrMxNJAAAAAAB8m1CiT+Y3pA8X7swADFN3auP3P0X8/FPEX//iEQHWo/sackyr0gEAAAAAVkIo0TdNOy2xBMAwdac2ui0Sf2o8IMB6TUp4CwAAAADANwgl+qhpTyPiXfYxAAN0d2rjf//H6wGs1+sS3AIAAAAA8B1bNzc3ZtRXdXUcEa+yjwFYk6Z9/J/Tndr4919skQDYjJNoWhvJAAAAAADu6XcG1WtHEbEfEXvZBwH0WHdq4+efbJEA2IxzkQQAAAAAwMM4vdFn8xvTBxFxnX0UQE85tQGwSbPytSIAAAAAAA/g9MYQ1FW3VeK/s48BWLGHnN5wagNg07qQdhJNO/USAAAAAAAPY6PEEMy/Af46+xiAnuhObXRbJEQSAJt0IJIAAAAAAHgcocRQNO1xRLzLPgZgw5zaAOiD19G0Z14CAAAAAOBxnN4YmrrqgolX2ccArMC3Tm84tQHQFyfRtIdeAwAAAADg8X5ndoNzFBH7EbGXfRDAmnSnNn7+yRYJgM37IJIAAAAAAHg6pzeGpmmvImISEbPsowDWwKkNgL7ovvYTSQAAAAAALIFQYojmsUT3jfLr7KMAVuj3P803Sfz1L6YMsFmXt6Hs/GtAAAAAAACeSCgxVE07LZslxBLAcv3fnyP+8e8j/tQYLMDmdV/rHYgkAAAAAACWRygxZPNY4ij7GIAl+q//jPiH105tAPTHpHzNBwAAAADAkmzd3NyY5dDVVXeG44/ZxwA80d/WtkgA9MvraNpjbwIAAAAAsFxCibGoq/cR8Sb7GAAARkIkAQAAAACwIk5vjEXTdic4TrKPAQBgBH4RSQAAAAAArI6NEmNTV6cR8TL7GAAABuokmvbQ4wEAAAAArI6NEuPTfWN9ln0IAAADJJIAAAAAAFgDGyXGqK52IuIsIvayjwIAYCBm0bT7HgsAAAAAYPVslBijpr2KiInNEgAAgzArX7sBAAAAALAGNkqMWV3tRsQ0IrazjwIAoKfmkcQ8dAUAAAAAYA1slBizpr0oP514nX0UAAA9JJIAAAAAANgAocTYNe1ULAEA0Dvd12aHIgkAAAAAgPUTSmQglgAA6JPrskli6lUAAAAAANZPKJGFWAIAoA9EEgAAAAAAGyaUyEQsAQCwSSIJAAAAAIAeEEpkM//G/FH2MQAArJlIAgAAAACgJ4QSGTXtcUS8zj4GAIA1EUkAAAAAAPSIUCIrsQQAwDqIJAAAAAAAekYokZlYAgBglUQSAAAAAAA9JJTITiwBALAKIgkAAAAAgJ4SSiCWAABYLpEEAAAAAECPbd3c3Hgf5upqEhGnEbFtIgAAjyKSAAAAAADoOaEEn6ur/Yg4E0sAADyYSAIAAAAAYACc3uBz82/sT8o3+gEAuB+RBAAAAADAQAgl+DWxBADAQ4gkAAAAAAAGRCjBbxNLAADcxywidkUSAAAAAADDIZTg6z7FEpemBADwK7OySeLKaAAAAAAAhmPr5ubGc/FtdbUTEWcRsWdSAAC3RBIAAAAAAANlowTfN/8AYFI+EAAAyO5cJAEAAAAAMFw2SnB/880SpxHxwtQAgKROomkPPT4AAAAAwHAJJXi4ujqOiFcmBwAkI5IAAAAAABgBpzd4uPkHBCcmBwAk8oNIAgAAAABgHIQSPM78g4IfTA8ASOB1NO17Dw0AAAAAMA5Ob/A0ddUFE380RQBghK4j4jCa9tTjAgAAAACMh1CCp6urSUR0HyBsmyYAMBJdJDGJpp16UAAAAACAcXF6g6dr2rPbDxLmHygAAAzdTCQBAAAAADBeNkqwPHW1WzZL7JkqADBQd5HElQcEAAAAABgnoQTLVVc7JZZ4YbIAwMCcRNMeejQAAAAAgHETSrAadXUcEa9MFwAYiHfRtG89FgAAAADA+AklWJ26OoqIP5gwANBzr6Npjz0SAAAAAEAOQglWq64OIqL74GHbpAGAnrmOiEk07dTDAAAAAADk8cxbs1JNe3r7AUTEpUEDAD0yi4h9kQQAAAAAQD5CCVZv/gHEfvlAAgBg0z6UTRIXXgIAAAAAIB+nN1ivuurOcLwydQBgQ36Jpj0yfAAAAACAvGyUYL2a9jAifjB1AGDNriPitUgCAAAAAAAbJdiMuppExGlEbHsBAGDFrsupjalBAwAAAABgowSb0bRnEbEfETMvAACsUPe1xq5IAgAAAACAOzZKsFl1tRMR7yPilZcAAJbspJz9AgAAAACAj4QS9ENddffC/+A1AIAl6E5tHEXTHhsmAAAAAABfEkrQH3U1iYjTiNj2KgDAI11GxIFTGwAAAAAAfM0zk6E3mvbs9ob4/JY4AMBDfYiIfZEEAAAAAADfYqME/VRX7yPijdcBAO7pXTTtW8MCAAAAAOB7hBL0V10dRMSxUxwAwDdcl1MbZ4YEAAAAAMB9CCXot7rqTnGcRsSelwIAvnBeIokrgwEAAAAA4L6EEvRfXe1ERHeK45XXAgAKpzYAAAAAAHgUoQTD4RQHAODUBgAAAAAATySUYFic4gCAzJzaAAAAAADgyYQSDFNddac43ng9AEjDqQ0AAAAAAJZCKMFw1dWkbJdwigMAxuuybJGYemMAAAAAAJbhmSkyWPPb5LtlDTcAMD4nEbEvkgAAAAAAYJlslGAc6uooIt7aLgEAo3AdEYfRtKeeEwAAAACAZRNKMB51tR8RxxGx51UBYLDOSyRx4QkBAAAAAFgFoQTjU1fdZokfvSwADM67aNq3ng0AAAAAgFUSSjBOdTUp2yWee2EA6L1Z2SIx9VQAAAAAAKyaUILxqqudiOh+KvWNVwaA3rJFAgAAAACAtRJKMH7z7RKnEbHttQGgNy7LFokzTwIAAAAAwDo9M21Gb/4BzG5EfPDYANALv0TEvkgCAAAAAIBNsFGCXOrqICKObZcAgI2wRQIAAAAAgI2zUYJcmva0bJc48fIAsFa2SAAAAAAA0As2SpBXXU3Kdonn/i0AgJWZRcSRQAIAAAAAgL4QSpBbXe1ExNuIeJN9FACwAu+iad8aLAAAAAAAfSKUgPi4XeJ9ROyZBwA82XnZIjE1SgAAAAAA+kYoAYvqqvup1x/NBAAe5fp2U1PTvjc+AAAAAAD6SigBX6qr3Yg4jogXZgMA9/ahbJG4MDIAAAAAAPpMKAFfU1eH5RzHthkBwFddlkDi1IgAAAAAABiCZ14JvqJpu60S3XaJEyMCgN/0LiL2RRIAAAAAAAyJjRJwH3U1Kdsl9swLAOK8bJGYGgUAAAAAAEMjlICHqKujiHjrHAcASV2XQOLYvwAAAAAAAAyV0xvwEE373jkOAJL65fa/gSIJAAAAAAAGzkYJeCznOADIoTuzcRhNe+G9AQAAAAAYA6EEPFVdHZZgwjkOAMbkspzZOPWqAAAAAACMiVAClqGudm4/TIr40TwBGLjr2wCwad96SAAAAAAAxkgoActUV7tlu8RLcwVggE7KFokrjwcAAAAAwFgJJWAV6mpSgok98wVgAM5LIDH1WAAAAAAAjJ1QAlaprg4joltd/tycAeihyxJInHocAAAAAACyEErAqtXVzu2HUPNf2+YNQA9cl0Di2GMAAAAAAJCNUALWZR5MdNsl3pg5ABtyXU5DvY+mvfIIAAAAAABkJJSAdaur3RJMvDJ7ANbopGyREEgAAAAAAJCaUAI2ZR5MdCvPX3gDAFbo5DbQa9oLQwYAAAAAAKEEbF5dTcqGCcEEAMt0HhGHAgkAAAAAAPicUAL6QjABwHKclw0SZ+YJAAAAAAC/JpSAvhFMAPA4AgkAAAAAALgHoQT0VV0dRMT7iHjujQD4BoEEAAAAAAA8gFAC+q6uDm9vzNswAcDnBBIAAAAAAPAIQgkYCic5AJgTSAAAAAAAwBMIJWBoBBMAWQkkAAAAAABgCYQSMFSCCYAsTiLifTTt1IsDAAAAAMDTCSVg6OpqPyKOIuKVtwQYlZOyQeLCswIAAAAAwPIIJWAs6mq3bJg4iIht7wowSNe32yMijgUSAAAAAACwGkoxKuAAAAqNSURBVEIJGJu62ikbJo4EEwCDcXkbR8xPbFx5NgAAAAAAWB2hBIzVPJg4KFsmnntngF6alTji2PMAAAAAAMB6CCUgg7o6KBsmXnhvgF74UAKJM88BAAAAAADrJZSATOpqt2yYeOXdAdbueuG8xoXxAwAAAADAZgglIKP5WY5uw8ShsxwAK3d5G0d0kUTTXhk3AAAAAABsllACsqurwxJMOMsBsFzOawAAAAAAQA8JJYC5T2c5DiJi21QAHsV5DQAAAAAA6DmhBPC5+VmOg3KaY890AO7lvJzWODYuAAAAAADoN6EE8HV1tV+CCVsmAH7N9ggAAAAAABggoQTwfbZMACyyPQIAAAAAAAZMKAE8TF3tlmDi0JYJIJHLsj3i2PYIAAAAAAAYNqEE8Hh1dVCCiZemCIzUSUScRtOeemAAAAAAABgHoQTwdPPTHIfll9McwNDNIuJ9CSSuvCYAAAAAAIyLUAJYrk+nObptE89NFxgIpzUAAAAAACAJoQSwOnU1KVsmumhi26SBnrm83RoxjyOmHgcAAAAAAHIQSgDrUVcHJZgQTQCbdF3iiO6sxqmXAAAAAACAfIQSwPrNo4lu08RL0wfWQBwBAAAAAAB8JJQANqeudsqGiYlNE8CSiSMAAAAAAIDfJJQA+sN5DuBpxBEAAAAAAMB3CSWAfppHE3ebJp57JeArLksccRxNOzUkAAAAAADge4QSQP/V1f7Cpok9LwbpzW7DiIgzcQQAAAAAAPBQQglgWOpqd2HTxEuvBylc30YRn85qXHl2AAAAAADgsYQSwLA50QFjNfsYRzTtmVcGAAAAAACWRSgBjMd828RdONH92va6MBiLWyO6kxoXng4AAAAAAFgFoQQwXnU1Wdg2seeloXfOF7ZGTD0PAAAAAACwDkIJIIe62lnYNDERTsBGOKcBAAAAAABsnFACyEk4AetwF0aclXMaV6YOAAAAAABsmlACIH4VTuxHxAtzgQc7XwgjpsIIAAAAAACgj4QSAF9TV4vhRPf7tlnBR9dfRBFOaQAAAAAAAIMglAC4r7ra/SKccK6DTM5vg4hPYcSF1wcAAAAAAIZIKAHwFPOtE/sLv8QTjMGsRBHzMKJpp14VAAAAAAAYC6EEwLKJJxiWblPExccwwgkNAAAAAABg5IQSAOtQV3fRxOL5jm2zZ40uSxBx9jGMsCkCAAAAAABISCgBsCl1tbOwdWJ34X8LKHiK64WzGYubIq5MFQAAAAAAQCgB0D+fBxQ7ZQPFjhMefGEWEVcLGyIunM0AAAAAAAD4PqEEwJDU1e7C9om7iKLzwjuO0nn5hzorUcS0BBEX2QcDAAAAAADwWEIJgLH4tIni7vdYCCmc9OifuxMZUUKIT7/bDAEAAAAAALAyQgmATD5tpFiMKe7+XthMsRSLAcRF+RULMYSNEAAAAAAAABsklADgt9XVZOHv322qiC8iiyiRxfORTnFWTl7cmS789dVCEGELBAAAAAAAwEAIJQBYvrpaDCsWTe7xZy1uuHio6Rdhw9f8VtRwFU07ffCfCAAAAAAAwKAIJQAAAAAAAACANJ55agAAAAAAAAAgC6EEAAAAAAAAAJCGUAIAAAAAAAAASEMoAQAAAAAAAACkIZQAAAAAAAAAANIQSgAAAAAAAAAAaQglAAAAAAAAAIA0hBIAAAAAAAAAQBpCCQAAAAAAAAAgDaEEAAAAAAAAAJCGUAIAAAAAAAAASEMoAQAAAAAAAACkIZQAAAAAAAAAANIQSgAAAAAAAAAAaQglAAAAAAAAAIA0hBIAAAAAAAAAQBpCCQAAAAAAAAAgDaEEAAAAAAAAAJCGUAIAAAAAAAAASEMoAQAAAAAAAACkIZQAAAAAAAAAANIQSgAAAAAAAAAAaQglAAAAAAAAAIA0hBIAAAAAAAAAQBpCCQAAAAAAAAAgDaEEAAAAAAAAAJCGUAIAAAAAAAAASEMoAQAAAAAAAACkIZQAAAAAAAAAANIQSgAAAAAAAAAAaQglAAAAAAAAAIA0hBIAAAAAAAAAQBpCCQAAAAAAAAAgDaEEAAAAAAAAAJCGUAIAAAAAAAAASEMoAQAAAAAAAACkIZQAAAAAAAAAANIQSgAAAAAAAAAAaQglAAAAAAAAAIA0hBIAAAAAAAAAQBpCCQAAAAAAAAAgDaEEAAAAAAAAAJCGUAIAAAAAAAAASEMoAQAAAAAAAACkIZQAAAAAAAAAANIQSgAAAAAAAAAAaQglAAAAAAAAAIA0hBIAAAAAAAAAQBpCCQAAAAAAAAAgDaEEAAAAAAAAAJCGUAIAAAAAAAAASEMoAQAAAAAAAACkIZQAAAAAAAAAANIQSgAAAAAAAAAAaQglAAAAAAAAAIA0hBIAAAAAAAAAQBpCCQAAAAAAAAAgDaEEAAAAAAAAAJCGUAIAAAAAAAAASEMoAQAAAAAAAACkIZQAAAAAAAAAANIQSgAAAAAAAAAAaQglAAAAAAAAAIA0hBIAAAAAAAAAQBpCCQAAAAAAAAAgDaEEAAAAAAAAAJCGUAIAAAAAAAAASEMoAQAAAAAAAACkIZQAAAAAAAAAANIQSgAAAAAAAAAAaQglAAAAAAAAAIA0hBIAAAAAAAAAQBpCCQAAAAAAAAAgDaEEAAAAAAAAAJCGUAIAAAAAAAAASEMoAQAAAAAAAACkIZQAAAAAAAAAANIQSgAAAAAAAAAAaQglAAAAAAAAAIA0hBIAAAAAAAAAQBpCCQAAAAAAAAAgDaEEAAAAAAAAAJCGUAIAAAAAAAAASEMoAQAAAAAAAACkIZQAAAAAAAAAANIQSgAAAAAAAAAAaQglAAAAAAAAAIA0hBIAAAAAAAAAQBpCCQAAAAAAAAAgDaEEAAAAAAAAAJCGUAIAAAAAAAAASEMoAQAAAAAAAACkIZQAAAAAAAAAANIQSgAAAAAAAAAAaQglAAAAAAAAAIA0hBIAAAAAAAAAQBpCCQAAAAAAAAAgDaEEAAAAAAAAAJCGUAIAAAAAAAAASEMoAQAAAAAAAACkIZQAAAAAAAAAANIQSgAAAAAAAAAAaQglAAAAAAAAAIA0hBIAAAAAAAAAQBpCCQAAAAAAAAAgDaEEAAAAAAAAAJCGUAIAAAAAAAAASEMoAQAAAAAAAACkIZQAAAAAAAAAANIQSgAAAAAAAAAAaQglAAAAAAAAAIA0hBIAAAAAAAAAQBpCCQAAAAAAAAAgDaEEAAAAAAAAAJCGUAIAAAAAAAAASEMoAQAAAAAAAACkIZQAAAAAAAAAANIQSgAAAAAAAAAAaQglAAAAAAAAAIA0hBIAAAAAAAAAQBpCCQAAAAAAAAAgDaEEAAAAAAAAAJCGUAIAAAAAAAAASEMoAQAAAAAAAACkIZQAAAAAAAAAANIQSgAAAAAAAAAAaQglAAAAAAAAAIA0hBIAAAAAAAAAQBpCCQAAAAAAAAAgDaEEAAAAAAAAAJCGUAIAAAAAAAAASEMoAQAAAAAAAACkIZQAAAAAAAAAANIQSgAAAAAAAAAAaQglAAAAAAAAAIA0hBIAAAAAAAAAQBpCCQAAAAAAAAAgDaEEAAAAAAAAAJCGUAIAAAAAAAAASEMoAQAAAAAAAADkEBH/D9G5nMVQfxmSAAAAAElFTkSuQmCC;" vertex="1" parent="1">
          <mxGeometry x="488" y="926" width="63.66" height="30" as="geometry" />
        </mxCell>
        <mxCell id="8ZCHsDbLr2-xaNgQYZt0-16" value="" style="curved=1;endArrow=classic;html=1;rounded=0;sketch=1;hachureGap=4;jiggle=2;curveFitting=1;fontFamily=Architects Daughter;fontSource=https%3A%2F%2Ffonts.googleapis.com%2Fcss%3Ffamily%3DArchitects%2BDaughter;fontSize=12;fontColor=default;exitX=0.5;exitY=0;exitDx=0;exitDy=0;strokeWidth=2;fillColor=#f8cecc;strokeColor=#b85450;" edge="1" parent="1" source="8ZCHsDbLr2-xaNgQYZt0-2">
          <mxGeometry width="50" height="50" relative="1" as="geometry">
            <mxPoint x="410" y="530" as="sourcePoint" />
            <mxPoint x="560" y="360" as="targetPoint" />
            <Array as="points">
              <mxPoint x="430" y="410" />
            </Array>
          </mxGeometry>
        </mxCell>
      </root>
    </mxGraphModel>
  </diagram>
</mxfile>
